<svg width="24" height="24" viewBox="0 0 24 24" fill="none" xmlns="http://www.w3.org/2000/svg">
<path d="M24 15C24 12.36 21.95 10.22 19.35 10.04C18.67 6.59 15.64 4 12 4C10.67 4 9.43001 4.36 8.35001 4.97L9.84001 6.46C10.51 6.17 11.23 6 12 6C15.04 6 17.5 8.46 17.5 11.5V12H19C20.66 12 22 13.34 22 15C22 15.99 21.52 16.85 20.79 17.4L22.2 18.81C23.29 17.89 24 16.54 24 15V15ZM3.71001 4.56C3.32001 4.95 3.32001 5.58 3.71001 5.97L5.77001 8.03H5.35001C2.07001 8.38 -0.409986 11.37 0.0600142 14.82C0.460014 17.84 3.19001 20 6.22001 20H17.73L19.02 21.29C19.41 21.68 20.04 21.68 20.43 21.29C20.82 20.9 20.82 20.27 20.43 19.88L5.12001 4.56C4.73001 4.17 4.10001 4.17 3.71001 4.56ZM6.00001 18C3.79001 18 2.00001 16.21 2.00001 14C2.00001 11.79 3.79001 10 6.00001 10H7.73001L15.73 18H6.00001Z" fill="black"/>
</svg>
