<svg width="24" height="24" viewBox="0 0 24 24" fill="none" xmlns="http://www.w3.org/2000/svg">
<path d="M15.87 15.2499L12.5 13.2499V8.7199C12.5 8.3199 12.18 7.9999 11.78 7.9999H11.72C11.32 7.9999 11 8.3199 11 8.7199V13.4399C11 13.7899 11.18 14.1199 11.49 14.2999L15.14 16.4899C15.48 16.6899 15.92 16.5899 16.12 16.2499C16.33 15.8999 16.22 15.4499 15.87 15.2499V15.2499ZM21.18 5.0099L18.1 2.4499C17.68 2.0999 17.05 2.1499 16.69 2.5799C16.34 2.9999 16.4 3.6299 16.82 3.9899L19.89 6.5499C20.31 6.8999 20.94 6.8499 21.3 6.4199C21.66 5.9999 21.6 5.3699 21.18 5.0099V5.0099ZM4.1 6.5499L7.17 3.9899C7.6 3.6299 7.66 2.9999 7.3 2.5799C6.95 2.1499 6.32 2.0999 5.9 2.4499L2.82 5.0099C2.4 5.3699 2.34 5.9999 2.7 6.4199C3.05 6.8499 3.68 6.8999 4.1 6.5499ZM12 3.9999C7.03 3.9999 3 8.0299 3 12.9999C3 17.9699 7.03 21.9999 12 21.9999C16.97 21.9999 21 17.9699 21 12.9999C21 8.0299 16.97 3.9999 12 3.9999ZM12 19.9999C8.14 19.9999 5 16.8599 5 12.9999C5 9.1399 8.14 5.9999 12 5.9999C15.86 5.9999 19 9.1399 19 12.9999C19 16.8599 15.86 19.9999 12 19.9999Z" fill="black"/>
</svg>
