<svg width="24" height="24" viewBox="0 0 24 24" fill="none" xmlns="http://www.w3.org/2000/svg">
<path d="M10.85 12.6499H13.15L12 8.99989L10.85 12.6499ZM20 8.68989V5.99989C20 4.89989 19.1 3.99989 18 3.99989H15.31L13.41 2.09989C12.63 1.31989 11.36 1.31989 10.58 2.09989L8.69 3.99989H6C4.9 3.99989 4 4.89989 4 5.99989V8.68989L2.1 10.5899C1.32 11.3699 1.32 12.6399 2.1 13.4199L4 15.3199V17.9999C4 19.0999 4.9 19.9999 6 19.9999H8.69L10.59 21.8999C11.37 22.6799 12.64 22.6799 13.42 21.8999L15.32 19.9999H18C19.1 19.9999 20 19.0999 20 17.9999V15.3099L21.9 13.4099C22.68 12.6299 22.68 11.3599 21.9 10.5799L20 8.68989ZM14.09 15.3999L13.6 13.9999H10.4L9.91 15.3999C9.78 15.7599 9.45 15.9999 9.07 15.9999C8.45 15.9999 8.02 15.3899 8.23 14.8099L10.67 7.94989C10.87 7.37989 11.4 6.99989 12 6.99989C12.6 6.99989 13.13 7.37989 13.34 7.93989L15.78 14.7999C15.99 15.3799 15.56 15.9899 14.94 15.9899C14.55 15.9999 14.22 15.7599 14.09 15.3999V15.3999Z" fill="black"/>
</svg>
