<svg width="24" height="24" viewBox="0 0 24 24" fill="none" xmlns="http://www.w3.org/2000/svg">
<path d="M20 15.3099L21.9 13.4099C22.68 12.6299 22.68 11.3599 21.9 10.5799L20 8.68989V5.99989C20 4.89989 19.1 3.99989 18 3.99989H15.31L13.41 2.09989C12.63 1.31989 11.36 1.31989 10.58 2.09989L8.69 3.99989H6C4.9 3.99989 4 4.89989 4 5.99989V8.68989L2.1 10.5899C1.32 11.3699 1.32 12.6399 2.1 13.4199L4 15.3199V17.9999C4 19.0999 4.9 19.9999 6 19.9999H8.69L10.59 21.8999C11.37 22.6799 12.64 22.6799 13.42 21.8999L15.32 19.9999H18C19.1 19.9999 20 19.0999 20 17.9999V15.3099ZM12 16.8999V7.09989C12 6.48989 12.55 5.98989 13.15 6.10989C15.91 6.64989 18 9.07989 18 11.9999C18 14.9199 15.91 17.3499 13.15 17.8899C12.55 18.0099 12 17.5099 12 16.8999Z" fill="black"/>
</svg>
