<svg width="24" height="24" viewBox="0 0 24 24" fill="none" xmlns="http://www.w3.org/2000/svg">
<g clip-path="url(#clip0_79_15387)">
<path d="M10.23 1.75C9.64 1.16 8.69 1.16 8.11 1.75L1.75 8.11C1.16 8.7 1.16 9.65 1.75 10.23L13.77 22.25C14.36 22.84 15.31 22.84 15.89 22.25L22.25 15.89C22.84 15.3 22.84 14.35 22.25 13.77L10.23 1.75ZM14.12 20.48L3.52 9.88C3.13 9.49 3.13 8.86 3.52 8.47L8.47 3.52C8.86 3.13 9.49 3.13 9.88 3.52L20.49 14.13C20.88 14.52 20.88 15.15 20.49 15.54L15.54 20.49C15.15 20.87 14.51 20.87 14.12 20.48V20.48ZM17.61 1.4C16.04 0.569999 14.06 -0.0300012 11.81 0.0199988C11.63 0.0199988 11.55 0.239999 11.67 0.369999L15.15 3.85L16.48 2.52C19.57 3.98 21.82 6.89 22.37 10.38C22.43 10.79 22.81 11.07 23.23 11C23.64 10.94 23.92 10.55 23.85 10.14C23.25 6.34 20.89 3.14 17.61 1.4V1.4ZM8.85 20.16L7.52 21.49C4.43 20.03 2.18 17.12 1.63 13.63C1.57 13.22 1.19 12.94 0.769998 13.01C0.359998 13.07 0.079998 13.46 0.149998 13.87C0.749998 17.68 3.11 20.88 6.39 22.62C7.96 23.45 9.94 24.05 12.19 24C12.37 24 12.45 23.78 12.33 23.65L8.85 20.16V20.16Z" fill="black"/>
</g>
<defs>
<clipPath id="clip0_79_15387">
<rect width="24" height="24" fill="white"/>
</clipPath>
</defs>
</svg>
