<svg width="24" height="24" viewBox="0 0 24 24" fill="none" xmlns="http://www.w3.org/2000/svg">
<path d="M11.15 3.39998L7.43 9.47998C7.02 10.14 7.5 11 8.28 11H15.71C16.49 11 16.97 10.14 16.56 9.47998L12.85 3.39998C12.46 2.75998 11.54 2.75998 11.15 3.39998Z" fill="black"/>
<path d="M17.5 22C19.9853 22 22 19.9853 22 17.5C22 15.0147 19.9853 13 17.5 13C15.0147 13 13 15.0147 13 17.5C13 19.9853 15.0147 22 17.5 22Z" fill="black"/>
<path d="M4 21.5H10C10.55 21.5 11 21.05 11 20.5V14.5C11 13.95 10.55 13.5 10 13.5H4C3.45 13.5 3 13.95 3 14.5V20.5C3 21.05 3.45 21.5 4 21.5Z" fill="black"/>
</svg>
