<svg width="24" height="24" viewBox="0 0 24 24" fill="none" xmlns="http://www.w3.org/2000/svg">
<path d="M16.24 11.51L17.81 9.93998L14.06 6.18998L12.49 7.75998L8.35 3.62998C7.57 2.84998 6.3 2.84998 5.52 3.62998L3.62 5.52998C2.84 6.30998 2.84 7.57998 3.62 8.35998L7.75 12.49L3.15 17.1C3.05 17.2 3 17.32 3 17.46V20.5C3 20.78 3.22 21 3.5 21H6.54C6.67 21 6.8 20.95 6.89 20.85L11.51 16.23L15.64 20.36C16.96 21.68 18.4 20.43 18.47 20.36L20.37 18.46C21.15 17.68 21.15 16.41 20.37 15.63L16.24 11.51ZM9.18 11.07L5.04 6.93998L6.93 5.03998L8.2 6.30998L7.73 6.79998C7.34 7.18998 7.34 7.81998 7.73 8.20998C8.12 8.59998 8.75 8.59998 9.14 8.20998L9.62 7.72998L11.07 9.17998L9.18 11.07ZM17.06 18.96L12.93 14.83L14.83 12.93L16.28 14.38L15.8 14.86C15.41 15.25 15.41 15.88 15.8 16.27C16.19 16.66 16.82 16.66 17.21 16.27L17.69 15.79L18.96 17.06L17.06 18.96Z" fill="black"/>
<path d="M20.71 7.03999C21.1 6.64999 21.1 6.01999 20.71 5.62999L18.37 3.28999C17.9 2.81999 17.25 2.99999 16.96 3.28999L15.13 5.11999L18.88 8.86999L20.71 7.03999Z" fill="black"/>
</svg>
