<svg width="24" height="24" viewBox="0 0 24 24" fill="none" xmlns="http://www.w3.org/2000/svg">
<path d="M19.99 9.79002C20.5 9.39002 20.5 8.61002 19.99 8.21002L13.23 2.95002C12.51 2.39002 11.5 2.39002 10.77 2.95002L9.40998 4.02002L17.29 11.9L19.99 9.79002ZM19.99 13.28L19.98 13.27C19.62 12.99 19.12 12.99 18.76 13.27L18.71 13.31L20.11 14.71C20.48 14.3 20.45 13.64 19.99 13.28V13.28ZM21.44 18.88L4.11998 1.56002C3.72998 1.17002 3.09998 1.17002 2.70998 1.56002C2.31998 1.95002 2.31998 2.58002 2.70998 2.97002L6.22998 6.49002L4.00998 8.21002C3.49998 8.61002 3.49998 9.39002 4.00998 9.79002L10.77 15.05C11.49 15.61 12.5 15.61 13.23 15.05L14.1 14.37L15.52 15.79L12.6 18.06C12.24 18.34 11.73 18.34 11.37 18.06L5.21998 13.28C4.85998 13 4.35998 13 3.99998 13.28C3.48998 13.68 3.48998 14.45 3.99998 14.85L10.76 20.11C11.48 20.67 12.49 20.67 13.22 20.11L16.94 17.22L20.01 20.29C20.4 20.68 21.03 20.68 21.42 20.29C21.83 19.9 21.83 19.27 21.44 18.88Z" fill="black"/>
</svg>
