<svg width="24" height="24" viewBox="0 0 24 24" fill="none" xmlns="http://www.w3.org/2000/svg">
<path d="M17 5.00002C17.83 5.00002 18.5 4.33002 18.5 3.50002C18.5 2.84002 17.84 1.86002 17.39 1.28002C17.19 1.02002 16.8 1.02002 16.6 1.28002C16.16 1.86002 15.5 2.84002 15.5 3.50002C15.5 4.33002 16.17 5.00002 17 5.00002ZM12 5.00002C12.83 5.00002 13.5 4.33002 13.5 3.50002C13.5 2.84002 12.84 1.86002 12.39 1.28002C12.19 1.02002 11.8 1.02002 11.6 1.28002C11.16 1.86002 10.5 2.84002 10.5 3.50002C10.5 4.33002 11.17 5.00002 12 5.00002V5.00002ZM7 5.00002C7.83 5.00002 8.5 4.33002 8.5 3.50002C8.5 2.84002 7.84 1.86002 7.39 1.28002C7.19 1.02002 6.8 1.02002 6.6 1.28002C6.16 1.86002 5.5 2.84002 5.5 3.50002C5.5 4.33002 6.17 5.00002 7 5.00002ZM18.92 8.01002C18.72 7.42002 18.16 7.00002 17.5 7.00002H6.5C5.84 7.00002 5.29 7.42002 5.08 8.01002L3.11 13.68C3.04 13.89 3 14.11 3 14.34V21.5C3 22.33 3.67 23 4.5 23C5.33 23 6 22.33 6 21.5V21H18V21.5C18 22.32 18.67 23 19.5 23C20.32 23 21 22.33 21 21.5V14.34C21 14.12 20.96 13.89 20.89 13.68L18.92 8.01002ZM6.5 18C5.67 18 5 17.33 5 16.5C5 15.67 5.67 15 6.5 15C7.33 15 8 15.67 8 16.5C8 17.33 7.33 18 6.5 18ZM17.5 18C16.67 18 16 17.33 16 16.5C16 15.67 16.67 15 17.5 15C18.33 15 19 15.67 19 16.5C19 17.33 18.33 18 17.5 18ZM5 13L6.27 9.18002C6.41 8.78002 6.79 8.50002 7.22 8.50002H16.78C17.21 8.50002 17.59 8.78002 17.73 9.18002L19 13H5Z" fill="black"/>
</svg>
