<svg width="24" height="24" viewBox="0 0 24 24" fill="none" xmlns="http://www.w3.org/2000/svg">
<path d="M18.89 4.99997H18.36L19.07 3.02997C19.31 2.37997 18.97 1.65997 18.32 1.42997C17.67 1.18997 16.95 1.52997 16.71 2.17997L15.69 4.99997H5.09998C3.72998 4.99997 2.76998 6.33997 3.19998 7.62997L4.99998 13L3.20998 18.37C2.76998 19.66 3.73998 21 5.09998 21H18.88C20.24 21 21.21 19.66 20.78 18.37L19 13L20.78 7.62997C21.21 6.33997 20.25 4.99997 18.89 4.99997ZM15 14H13V16C13 16.55 12.55 17 12 17C11.45 17 11 16.55 11 16V14H8.99998C8.44998 14 7.99998 13.55 7.99998 13C7.99998 12.45 8.44998 12 8.99998 12H11V9.99997C11 9.44997 11.45 8.99997 12 8.99997C12.55 8.99997 13 9.44997 13 9.99997V12H15C15.55 12 16 12.45 16 13C16 13.55 15.55 14 15 14Z" fill="black"/>
</svg>
