<svg width="24" height="24" viewBox="0 0 24 24" fill="none" xmlns="http://www.w3.org/2000/svg">
<path d="M17 5.21C17 4.76 17.54 4.54 17.85 4.86L20.64 7.65C20.84 7.85 20.84 8.16 20.64 8.36L17.85 11.15C17.54 11.46 17 11.24 17 10.79V9H14C13.45 9 13 8.55 13 8C13 7.45 13.45 7 14 7H17V5.21ZM10 7C9.45002 7 9.00002 7.45 9.00002 8C9.00002 8.55 9.45002 9 10 9C10.55 9 11 8.55 11 8C11 7.45 10.55 7 10 7ZM6.00002 7C5.45002 7 5.00002 7.45 5.00002 8C5.00002 8.55 5.45002 9 6.00002 9C6.55002 9 7.00002 8.55 7.00002 8C7.00002 7.45 6.55002 7 6.00002 7ZM7.00002 17H10C10.55 17 11 16.55 11 16C11 15.45 10.55 15 10 15H7.00002V13.21C7.00002 12.76 6.46002 12.54 6.15002 12.86L3.36002 15.65C3.16002 15.85 3.16002 16.16 3.36002 16.36L6.15002 19.15C6.46002 19.46 7.00002 19.24 7.00002 18.79V17ZM14 17C14.55 17 15 16.55 15 16C15 15.45 14.55 15 14 15C13.45 15 13 15.45 13 16C13 16.55 13.45 17 14 17ZM18 17C18.55 17 19 16.55 19 16C19 15.45 18.55 15 18 15C17.45 15 17 15.45 17 16C17 16.55 17.45 17 18 17Z" fill="black"/>
</svg>
