<svg width="24" height="24" viewBox="0 0 24 24" fill="none" xmlns="http://www.w3.org/2000/svg">
<path d="M21 14C21 13.45 20.55 13 20 13H17.93C17.88 12.61 17.81 12.23 17.71 11.86L19.43 10.87C19.91 10.59 20.07 9.98001 19.8 9.50001C19.52 9.02001 18.91 8.86001 18.43 9.13001L16.92 10C16.64 9.52001 16.3 9.09001 15.93 8.71001C15.97 8.48001 16 8.25001 16 8.00001C16 7.20001 15.76 6.45001 15.35 5.82001L16.29 4.88001C16.68 4.49001 16.68 3.86001 16.29 3.47001C15.9 3.08001 15.27 3.08001 14.88 3.47001L13.86 4.49001C12.18 3.60001 10.76 4.16001 10.13 4.49001L9.12 3.46001C8.73 3.07001 8.1 3.07001 7.71 3.46001C7.32 3.85001 7.32 4.48001 7.71 4.87001L8.65 5.81001C8.24 6.45001 8 7.20001 8 8.00001C8 8.25001 8.03 8.48001 8.07 8.72001C7.7 9.10001 7.36 9.53001 7.08 10L5.57 9.13001C5.09 8.86001 4.48 9.02001 4.21 9.50001C3.93 9.98001 4.1 10.59 4.58 10.87L6.3 11.86C6.2 12.23 6.13 12.61 6.08 13H4C3.45 13 3 13.45 3 14C3 14.55 3.45 15 4 15H6.07C6.12 15.39 6.19 15.77 6.29 16.14L4.57 17.13C4.09 17.41 3.93 18.02 4.2 18.5C4.48 18.98 5.09 19.14 5.57 18.87L7.08 18C8.16 19.81 9.96 21 12 21C14.04 21 15.84 19.81 16.92 18L18.43 18.87C18.91 19.15 19.52 18.98 19.8 18.5C20.08 18.02 19.91 17.41 19.43 17.13L17.71 16.14C17.81 15.77 17.88 15.39 17.93 15H20C20.55 15 21 14.55 21 14ZM12 17C11.45 17 11 16.55 11 16V12C11 11.45 11.45 11 12 11C12.55 11 13 11.45 13 12V16C13 16.55 12.55 17 12 17Z" fill="black"/>
</svg>
