<svg width="24" height="24" viewBox="0 0 24 24" fill="none" xmlns="http://www.w3.org/2000/svg">
<path d="M19.28 4.93001L17.16 2.81001C16.38 2.03001 15.11 2.03001 14.33 2.81001L11.5 5.64001L13.62 7.76001L15.74 5.64001L19.28 9.18001C20.45 8.00001 20.45 6.10001 19.28 4.93001Z" fill="black"/>
<path d="M5.48999 13.77C6.07999 14.36 7.02999 14.36 7.60999 13.77L10.08 11.3L7.95999 9.17001L5.48999 11.64C4.89999 12.23 4.89999 13.18 5.48999 13.77Z" fill="black"/>
<path d="M14.33 8.45999L13.62 9.16999L10.44 5.98999C9.85003 5.39999 8.90003 5.39999 8.32003 5.98999C7.73003 6.57999 7.73003 7.52999 8.32003 8.10999L11.5 11.29L4.50003 18.29C3.80003 18.99 3.62003 20.13 4.21003 20.94C4.95003 21.97 6.40003 22.06 7.26003 21.2L16.45 12C16.84 12.39 17.47 12.39 17.86 12C18.25 11.61 18.25 10.98 17.86 10.59L15.74 8.46999C15.35 8.06999 14.72 8.06999 14.33 8.45999Z" fill="black"/>
</svg>
