<svg width="24" height="24" viewBox="0 0 24 24" fill="none" xmlns="http://www.w3.org/2000/svg">
<path d="M20.99 17.99L16.05 13.05L13.93 15.17L18.87 20.11C19.46 20.7 20.41 20.7 20.99 20.11C21.57 19.52 21.57 18.57 20.99 17.99Z" fill="black"/>
<path d="M17.65 9.99999C19.58 9.99999 21.15 8.42999 21.15 6.49999C21.15 5.91999 20.99 5.37999 20.74 4.89999L18.04 7.59999L16.55 6.10999L19.25 3.40999C18.77 3.15999 18.23 2.99999 17.65 2.99999C15.72 2.99999 14.15 4.56999 14.15 6.49999C14.15 6.90999 14.23 7.29999 14.36 7.65999L12.51 9.50999L10.73 7.72999C11.12 7.33999 11.12 6.70999 10.73 6.31999L10.02 5.60999L12.14 3.48999C10.97 2.31999 9.07001 2.31999 7.90001 3.48999L5.08001 6.31999C4.69001 6.70999 4.69001 7.33999 5.08001 7.72999L5.79001 8.43999H3.25001C3.06001 8.43999 2.88001 8.50999 2.75001 8.64999C2.47001 8.92999 2.47001 9.36999 2.75001 9.64999L5.29001 12.19C5.57001 12.47 6.01001 12.47 6.29001 12.19C6.42001 12.06 6.50001 11.88 6.50001 11.69V9.14999L7.20001 9.84999C7.59001 10.24 8.22001 10.24 8.61001 9.84999L10.39 11.63L4.04001 17.98C3.45001 18.57 3.45001 19.52 4.04001 20.1C4.63001 20.69 5.58001 20.69 6.16001 20.1L16.48 9.78999C16.85 9.91999 17.24 9.99999 17.65 9.99999Z" fill="black"/>
</svg>
