<svg width="24" height="24" viewBox="0 0 24 24" fill="none" xmlns="http://www.w3.org/2000/svg">
<path d="M20.41 9C20.9 9 21.1 8.37 20.7 8.09L13.15 2.8C12.46 2.32 11.54 2.32 10.86 2.8L3.29999 8.09C2.89999 8.37 3.09999 9 3.58999 9H11V21C11 21.55 11.45 22 12 22C12.55 22 13 21.55 13 21V9H20.41Z" fill="black"/>
<path d="M8.00001 16H4.90001L4.33001 12.98C4.23001 12.44 3.71001 12.08 3.16001 12.18C2.62001 12.28 2.26001 12.8 2.36001 13.35L3.00001 16.74V21C3.00001 21.55 3.45001 22 4.00001 22H4.01001C4.56001 22 5.01001 21.56 5.01001 21.01L5.02001 18H7.00001V21C7.00001 21.55 7.45001 22 8.00001 22C8.55001 22 9.00001 21.55 9.00001 21V17C9.00001 16.45 8.55001 16 8.00001 16Z" fill="black"/>
<path d="M20.84 12.18C20.3 12.08 19.78 12.44 19.67 12.98L19.1 16H16C15.45 16 15 16.45 15 17V21C15 21.55 15.45 22 16 22C16.55 22 17 21.55 17 21V18H18.98L19 21.01C19 21.56 19.45 22 20 22C20.55 22 21 21.55 21 21V16.74L21.64 13.35C21.74 12.81 21.38 12.28 20.84 12.18Z" fill="black"/>
</svg>
