<svg width="24" height="24" viewBox="0 0 24 24" fill="none" xmlns="http://www.w3.org/2000/svg">
<path d="M10 5H4C3.45 5 3 5.45 3 6C3 6.55 3.45 7 4 7H6V10C6 10.55 6.45 11 7 11C7.55 11 8 10.55 8 10V7H10C10.55 7 11 6.55 11 6C11 5.45 10.55 5 10 5Z" fill="black"/>
<path d="M10 2H4C3.45 2 3 2.45 3 3C3 3.55 3.45 4 4 4H10C10.55 4 11 3.55 11 3C11 2.45 10.55 2 10 2Z" fill="black"/>
<path d="M20.89 13.11C20.5 12.72 19.87 12.72 19.48 13.11L13.12 19.47C12.73 19.86 12.73 20.49 13.12 20.88C13.51 21.27 14.14 21.27 14.53 20.88L20.89 14.52C21.28 14.13 21.28 13.5 20.89 13.11Z" fill="black"/>
<path d="M14.5 16C15.3284 16 16 15.3284 16 14.5C16 13.6716 15.3284 13 14.5 13C13.6716 13 13 13.6716 13 14.5C13 15.3284 13.6716 16 14.5 16Z" fill="black"/>
<path d="M19.5 21C20.3284 21 21 20.3284 21 19.5C21 18.6716 20.3284 18 19.5 18C18.6716 18 18 18.6716 18 19.5C18 20.3284 18.6716 21 19.5 21Z" fill="black"/>
<path d="M15.5 11C16.88 11 18 9.88 18 8.5V4H20C20.55 4 21 3.55 21 3C21 2.45 20.55 2 20 2H18C17.45 2 17 2.45 17 3V6.51C16.58 6.19 16.07 6 15.5 6C14.12 6 13 7.12 13 8.5C13 9.88 14.12 11 15.5 11Z" fill="black"/>
<path d="M10.45 18.09C10.84 17.7 10.84 17.07 10.45 16.68C10.06 16.29 9.43 16.29 9.04 16.68L8.33 17.39L7.62 16.68L7.97 16.33C8.95 15.35 8.95 13.77 7.97 12.79C7.48 12.3 6.84 12.06 6.2 12.06C5.56 12.06 4.92 12.3 4.43 12.79C3.45 13.77 3.45 15.35 4.43 16.33L4.78 16.68L3.72 17.74C2.74 18.72 2.74 20.3 3.72 21.28C4.22 21.76 4.86 22 5.5 22C6.14 22 6.78 21.76 7.27 21.27L8.33 20.21L9.04 20.92C9.43 21.31 10.06 21.31 10.45 20.92C10.84 20.53 10.84 19.9 10.45 19.51L9.74 18.8L10.45 18.09ZM5.85 14.2C5.97 14.08 6.11 14.05 6.2 14.05C6.29 14.05 6.43 14.08 6.55 14.2C6.74 14.4 6.74 14.71 6.55 14.91L6.2 15.26L5.85 14.9C5.73 14.78 5.7 14.64 5.7 14.55C5.7 14.46 5.73 14.32 5.85 14.2ZM5.85 19.85C5.73 19.97 5.59 20 5.5 20C5.41 20 5.27 19.97 5.15 19.85C5.03 19.73 5 19.59 5 19.5C5 19.41 5.03 19.27 5.15 19.15L6.21 18.09L6.92 18.8L5.85 19.85Z" fill="black"/>
</svg>
