<svg width="24" height="24" viewBox="0 0 24 24" fill="none" xmlns="http://www.w3.org/2000/svg">
<path d="M11.1 12.08C9.1 8.19998 10.18 4.71998 11.17 2.80998C11.36 2.44998 11.05 2.03998 10.64 2.08998C5.62 2.76998 1.78 7.15998 1.99 12.41C2 12.41 2 12.41 2 12.42C2.62 12.15 3.29 12 4 12C5.66 12 7.18 12.83 8.1 14.15C9.77 14.63 11 16.17 11 18C11 19.52 10.13 20.83 8.88 21.51C9.86 21.83 10.91 22.01 11.99 22.01C15.12 22.01 17.91 20.57 19.75 18.32C20.01 18 19.79 17.53 19.38 17.5C16.89 17.37 13.1 15.97 11.1 12.08Z" fill="black"/>
<path d="M7 16H6.82C6.4 14.84 5.3 14 4 14C2.34 14 1 15.34 1 17C1 18.66 2.34 20 4 20C4.62 20 6.49 20 7 20C8.1 20 9 19.1 9 18C9 16.9 8.1 16 7 16Z" fill="black"/>
</svg>
