<svg width="40" height="40" viewBox="0 0 40 40" fill="none" xmlns="http://www.w3.org/2000/svg">
<rect width="40" height="40" fill="white"/>
<path d="M20 30C21.1 30 22 29.1 22 28H18C18 29.1 18.89 30 20 30ZM26 24V19C26 15.93 24.36 13.36 21.5 12.68V12C21.5 11.17 20.83 10.5 20 10.5C19.17 10.5 18.5 11.17 18.5 12V12.68C15.63 13.36 14 15.92 14 19V24L12.71 25.29C12.08 25.92 12.52 27 13.41 27H26.58C27.47 27 27.92 25.92 27.29 25.29L26 24Z" fill="currentColor"/>
<circle cx="24.5898" cy="13" r="5" fill="#C3112B" stroke="white"/>
</svg>
