<svg width="24" height="24" viewBox="0 0 24 24" fill="none" xmlns="http://www.w3.org/2000/svg">
<path d="M17 22C18.66 22 20 20.66 20 19C20 17.34 18.66 16 17 16C15.7 16 14.6 16.84 14.18 18H9.14001L11.13 14.94C11.42 14.98 11.71 15 12 15C12.29 15 12.58 14.98 12.87 14.94L13.89 16.51C14.31 15.98 14.85 15.56 15.49 15.3L14.89 14.37C16.99 13.42 18.53 11.47 18.91 9.13C19.01 8.54 18.52 8 17.92 8C15.31 8 8.69001 8 6.08001 8C5.48001 8 4.99001 8.54 5.09001 9.14C5.47001 11.48 7.02001 13.43 9.11001 14.38L5.16001 20.46C4.86001 20.92 4.99001 21.54 5.45001 21.84C5.91001 22.14 6.53001 22.01 6.83001 21.55L7.83001 20H14.17C14.6 21.16 15.7 22 17 22ZM17 18C17.55 18 18 18.45 18 19C18 19.55 17.55 20 17 20C16.45 20 16 19.55 16 19C16 18.45 16.45 18 17 18Z" fill="black"/>
<path d="M9.50001 6.47C9.48001 6.75 9.68001 7 9.96001 7H10C10.24 7 10.44 6.82 10.46 6.58C10.56 5.71 10.5 5.19 9.52001 4.04C9.16001 3.61 8.92001 3.35 8.99001 2.49C9.02001 2.23 8.80001 2 8.53001 2H8.48001C8.24001 2 8.03001 2.19 8.01001 2.43C7.93001 3.36 8.21001 4.17 8.96001 4.96C9.15001 5.17 9.60001 5.52 9.50001 6.47Z" fill="black"/>
<path d="M11.99 6.47C11.96 6.75 12.17 7 12.45 7H12.48C12.72 7 12.92 6.82 12.94 6.58C13.04 5.71 12.98 5.19 12 4.04C11.64 3.61 11.39 3.35 11.47 2.49C11.5 2.23 11.28 2 11.01 2H10.96C10.72 2 10.51 2.19 10.49 2.43C10.41 3.36 10.69 4.17 11.44 4.96C11.63 5.17 12.08 5.52 11.99 6.47Z" fill="black"/>
<path d="M14.5 6.47C14.48 6.75 14.68 7 14.96 7H15C15.24 7 15.44 6.82 15.46 6.58C15.56 5.71 15.5 5.19 14.52 4.04C14.16 3.61 13.91 3.35 13.99 2.49C14.02 2.23 13.8 2 13.53 2H13.48C13.24 2 13.03 2.19 13.01 2.43C12.93 3.36 13.21 4.17 13.96 4.96C14.15 5.17 14.6 5.52 14.5 6.47Z" fill="black"/>
</svg>
