<svg width="24" height="24" viewBox="0 0 24 24" fill="none" xmlns="http://www.w3.org/2000/svg">
<path d="M19.93 8.35L16.33 10.03L14 7.7V6.3L16.33 3.97L19.93 5.65C20.31 5.83 20.75 5.66 20.93 5.29C21.11 4.91 20.94 4.47 20.57 4.29L16.65 2.46C16.27 2.28 15.82 2.36 15.52 2.66L13.78 4.4C13.6 4.16 13.32 4 13 4C12.45 4 12 4.45 12 5V6H8.82C8.34 4.66 6.96 3.75 5.4 4.06C4.23 4.29 3.27 5.25 3.05 6.42C2.8 7.76 3.45 8.96 4.48 9.58L7.08 18H5.5C4.67 18 4 18.67 4 19.5C4 20.33 4.67 21 5.5 21H15.5C16.33 21 17 20.33 17 19.5C17 18.67 16.33 18 15.5 18H13.38L8.41 8.77C8.58 8.53 8.72 8.28 8.82 8H12V9C12 9.55 12.45 10 13 10C13.32 10 13.6 9.84 13.78 9.6L15.52 11.34C15.82 11.64 16.27 11.72 16.65 11.54L20.57 9.71C20.95 9.53 21.11 9.09 20.93 8.71C20.75 8.34 20.31 8.17 19.93 8.35ZM6 8C5.45 8 5 7.55 5 7C5 6.45 5.45 6 6 6C6.55 6 7 6.45 7 7C7 7.55 6.55 8 6 8Z" fill="black"/>
</svg>
