<svg width="24" height="24" viewBox="0 0 24 24" fill="none" xmlns="http://www.w3.org/2000/svg">
<path d="M14.27 6.00002C13.72 6.95002 14.05 8.18002 15 8.73002C15.95 9.28002 17.18 8.95002 17.73 8.00002C18.28 7.05002 17.95 5.82002 17 5.27002C16.05 4.72002 14.82 5.05002 14.27 6.00002Z" fill="black"/>
<path d="M15.84 10.41C15.84 10.41 14.21 9.46996 13.24 8.90996C11.11 7.66996 10.23 5.07996 11.06 2.83996C11.23 2.37996 11.05 1.86996 10.63 1.62996C10.1 1.32996 9.40998 1.55996 9.19998 2.12996C8.24998 4.63996 8.84998 7.47996 10.66 9.39996L6.00998 17.45C5.72998 17.93 5.89998 18.54 6.37998 18.82C6.85998 19.1 7.46998 18.93 7.74998 18.45L8.74998 16.72L10.48 17.72L7.97998 22.05C7.69998 22.53 7.86998 23.14 8.34998 23.42C8.82998 23.7 9.43998 23.53 9.71998 23.05L15.51 13.03C16.49 14.37 16.77 16.15 16.17 17.75C16 18.2 16.19 18.71 16.6 18.95C17.13 19.26 17.82 19.03 18.04 18.45C19.01 15.83 18.45 12.61 15.84 10.41Z" fill="black"/>
<path d="M12.75 3.80002C13.47 4.21002 14.38 3.97002 14.8 3.25002C15.21 2.53002 14.97 1.62002 14.25 1.20002C13.53 0.790021 12.62 1.03002 12.2 1.75002C11.79 2.47002 12.03 3.39002 12.75 3.80002Z" fill="black"/>
</svg>
