<svg width="24" height="24" viewBox="0 0 24 24" fill="none" xmlns="http://www.w3.org/2000/svg">
<path d="M3.81 6.28003C2.67 7.90003 2 9.87003 2 12C2 14.13 2.67 16.1 3.81 17.72C6.23 16.95 8 14.68 8 12C8 9.32003 6.23 7.05003 3.81 6.28003Z" fill="black"/>
<path d="M20.19 6.28003C17.77 7.05003 16 9.32003 16 12C16 14.68 17.77 16.95 20.19 17.72C21.33 16.1 22 14.13 22 12C22 9.87003 21.33 7.90003 20.19 6.28003Z" fill="black"/>
<path d="M14 12C14 8.72 15.97 5.91 18.79 4.67C17.01 3.02 14.63 2 12 2C9.36999 2 6.98999 3.02 5.20999 4.67C8.02999 5.91 9.99999 8.72 9.99999 12C9.99999 15.28 8.02999 18.09 5.20999 19.33C6.98999 20.98 9.36999 22 12 22C14.63 22 17.01 20.98 18.79 19.33C15.97 18.09 14 15.28 14 12Z" fill="black"/>
</svg>
