<svg width="24" height="24" viewBox="0 0 24 24" fill="none" xmlns="http://www.w3.org/2000/svg">
<path d="M17.09 11H21.95C21.79 9.38998 21.24 7.88998 20.41 6.59998C18.68 7.42998 17.42 9.04998 17.09 11Z" fill="black"/>
<path d="M6.90999 11C6.57999 9.04998 5.31999 7.42998 3.58999 6.59998C2.75999 7.88998 2.20999 9.38998 2.04999 11H6.90999Z" fill="black"/>
<path d="M15.07 11C15.39 8.41005 16.95 6.21005 19.13 5.00005C17.53 3.37005 15.39 2.29005 13 2.05005V11H15.07Z" fill="black"/>
<path d="M8.93 11H11V2.05005C8.61 2.29005 6.46 3.37005 4.87 5.00005C7.05 6.21005 8.61 8.41005 8.93 11Z" fill="black"/>
<path d="M15.07 13H13V21.95C15.39 21.71 17.54 20.63 19.13 19C16.95 17.79 15.39 15.59 15.07 13Z" fill="black"/>
<path d="M3.58999 17.4C5.30999 16.57 6.57999 14.94 6.90999 13H2.04999C2.20999 14.61 2.75999 16.11 3.58999 17.4Z" fill="black"/>
<path d="M17.09 13C17.42 14.95 18.68 16.57 20.41 17.4C21.24 16.11 21.79 14.61 21.95 13H17.09V13Z" fill="black"/>
<path d="M8.93 13C8.61 15.59 7.05 17.79 4.87 19C6.47 20.63 8.61 21.71 11 21.95V13H8.93Z" fill="black"/>
</svg>
