<svg width="24" height="24" viewBox="0 0 24 24" fill="none" xmlns="http://www.w3.org/2000/svg">
<path d="M16.5 4.38C17.6046 4.38 18.5 3.48457 18.5 2.38C18.5 1.27544 17.6046 0.380005 16.5 0.380005C15.3954 0.380005 14.5 1.27544 14.5 2.38C14.5 3.48457 15.3954 4.38 16.5 4.38Z" fill="black"/>
<path d="M24 10.88V7.17999L19.01 5.06999C18.03 4.65999 16.89 4.99999 16.3 5.87999L15.3 7.47999C14.63 8.65999 13.39 9.53999 11.89 9.79999L11.95 9.85999C12.64 10.55 13.47 10.93 14.41 11.03C15.21 10.61 15.93 10.05 16.5 9.38999L17.1 12.39L15.94 13.49L15 14.38V15.14V20.88C15 21.43 15.45 21.88 16 21.88C16.55 21.88 17 21.43 17 20.88V15.88L19.1 13.88L20.72 21.07C20.83 21.54 21.25 21.88 21.74 21.88C22.4 21.88 22.89 21.28 22.76 20.64L20.82 10.88L20.2 7.77999L22 8.47999V10.88C22 11.43 22.45 11.88 23 11.88C23.55 11.88 24 11.43 24 10.88Z" fill="black"/>
<path d="M10.29 8.09003C10.51 8.24003 10.76 8.33003 11.01 8.38003C11.14 8.40003 11.26 8.42003 11.39 8.42003C11.52 8.42003 11.65 8.41003 11.77 8.38003C11.9 8.36003 12.02 8.32003 12.14 8.27003C12.38 8.17003 12.61 8.03003 12.8 7.83003C13.29 7.34003 13.47 6.66003 13.35 6.03003C13.28 5.66003 13.1 5.29003 12.8 5.00003C12.61 4.81003 12.38 4.66003 12.14 4.56003C12.02 4.51003 11.9 4.47003 11.77 4.45003C11.64 4.43003 11.52 4.41003 11.39 4.41003C11.27 4.41003 11.16 4.42003 11.04 4.44003C10.9 4.46003 10.76 4.50003 10.63 4.55003C10.4 4.66003 10.17 4.81003 9.98002 5.00003C9.68002 5.29003 9.50002 5.66003 9.43002 6.03003C9.31002 6.66003 9.49002 7.34003 9.98002 7.83003C10.07 7.93003 10.18 8.01003 10.29 8.09003Z" fill="black"/>
<path d="M11.24 10.56L9.24003 8.55998C9.14003 8.45998 9.04003 8.37998 8.93003 8.29998C8.71003 8.15998 8.46003 8.05998 8.21003 8.01998C8.08003 7.98998 7.96003 7.97998 7.83003 7.97998C7.32003 7.97998 6.81003 8.17998 6.42003 8.56998L3.08003 11.91C2.67003 12.32 2.46003 12.89 2.50003 13.45C2.50003 13.63 2.54003 13.82 2.61003 14L3.68003 16.95L0.760029 19.87C0.370029 20.26 0.370029 20.89 0.760029 21.28C1.15003 21.67 1.78003 21.67 2.17003 21.28L5.71003 17.74V15.52L7.00003 16.75V20.88C7.00003 21.43 7.45003 21.88 8.00003 21.88C8.55003 21.88 9.00003 21.43 9.00003 20.88V15.88L6.88003 13.76L9.24003 11.4L9.95003 12.11C10.97 13.11 12.23 13.8 13.74 14.05C14.38 14.16 14.95 13.6 14.9 12.95C14.87 12.47 14.5 12.08 14.03 12.01C12.9 11.83 11.97 11.29 11.24 10.56Z" fill="black"/>
</svg>
