<svg width="24" height="24" viewBox="0 0 24 24" fill="none" xmlns="http://www.w3.org/2000/svg">
<path d="M12 11.39C12 10.74 11.61 10.16 11.02 9.91005L5.44001 7.55005C3.96001 9.23005 3.12001 11.25 2.64001 13H10.39C11.28 13 12 12.28 12 11.39Z" fill="black"/>
<path d="M21.96 11.22C21.55 6.80998 17.4 3.72998 12.98 4.01998C10.47 4.17998 8.54 4.95998 7.05 6.05998L11.79 8.06998C13.12 8.63998 13.99 9.93998 13.99 11.39C13.99 13.38 12.37 15 10.38 15H2.21C2 16.31 2 17.2 2 17.2V18C2 19.1 2.9 20 4 20H14C18.67 20 22.41 15.99 21.96 11.22Z" fill="black"/>
</svg>
