<svg width="24" height="24" viewBox="0 0 24 24" fill="none" xmlns="http://www.w3.org/2000/svg">
<path d="M4.51 15.4801L6.51 13.8901C6.99 13.5101 7.27 12.9301 7.27 12.3201V9.72011C10.29 8.74011 13.56 8.73011 16.59 9.72011V12.3301C16.59 12.9401 16.87 13.5201 17.35 13.9001L19.34 15.4801C20.14 16.1101 21.28 16.0501 22 15.3301L23.22 14.1101C24.02 13.3101 24.02 11.9801 23.17 11.2301C16.76 5.57011 7.1 5.57011 0.690004 11.2301C-0.159996 11.9801 -0.159996 13.3101 0.640004 14.1101L1.86 15.3301C2.57 16.0501 3.71 16.1101 4.51 15.4801V15.4801Z" fill="black"/>
</svg>
