<svg width="24" height="24" viewBox="0 0 24 24" fill="none" xmlns="http://www.w3.org/2000/svg">
<path d="M0.310002 2.00002C-0.0799982 2.39002 -0.0799982 3.02002 0.310002 3.41002L1 4.09002V16C1 17.1 1.9 18 3 18H10V20H9C8.45 20 8 20.45 8 21C8 21.55 8.45 22 9 22H15C15.55 22 16 21.55 16 21C16 20.45 15.55 20 15 20H14V18H14.9L20.19 23.29C20.58 23.68 21.21 23.68 21.6 23.29C21.99 22.9 21.99 22.27 21.6 21.88L1.72 2.00002C1.33 1.61002 0.700002 1.61002 0.310002 2.00002ZM2.99 15V6.09002L12.9 16H3.99C3.44 16 2.99 15.55 2.99 15ZM4.55 2.00002L6.55 4.00002H20C20.55 4.00002 21 4.45002 21 5.00002V15C21 15.55 20.55 16 20 16H18.55L20.55 18H20.99C22.09 18 22.99 17.1 22.99 16V4.00002C22.99 2.90002 22.09 2.00002 20.99 2.00002H4.55Z" fill="black"/>
</svg>
