<svg width="24" height="24" viewBox="0 0 24 24" fill="none" xmlns="http://www.w3.org/2000/svg">
<path d="M0.710011 2.38991C0.320011 2.77991 0.320011 3.40991 0.710011 3.79991L2.00001 5.09991V18.9999C2.00001 20.0999 2.90001 20.9999 4.00001 20.9999H17.9L20.19 23.2899C20.58 23.6799 21.21 23.6799 21.6 23.2899C21.99 22.8999 21.99 22.2699 21.6 21.8799L2.12001 2.38991C1.73001 1.99991 1.10001 1.99991 0.710011 2.38991ZM6.00001 18.9999H4.00001V16.9999H6.00001V18.9999ZM6.00001 14.9999H4.00001V12.9999H6.00001V14.9999ZM4.00001 10.9999V8.99991H6.00001V10.9999H4.00001ZM10 18.9999H8.00001V16.9999H10V18.9999ZM8.00001 14.9999V12.9999H10V14.9999H8.00001ZM12 18.9999V16.9999H13.9L15.9 18.9999H12ZM8.00001 4.99991H10V6.99991H9.55001L12 9.44991V8.99991H19C19.55 8.99991 20 9.44991 20 9.99991V17.4499L22 19.4499V8.99991C22 7.89991 21.1 6.99991 20 6.99991H12V4.99991C12 3.89991 11.1 2.99991 10 2.99991H5.55001L8.00001 5.44991V4.99991ZM16 10.9999H18V12.9999H16V10.9999Z" fill="black"/>
</svg>
