<svg width="24" height="24" viewBox="0 0 24 24" fill="none" xmlns="http://www.w3.org/2000/svg">
<path d="M12.5 7.7C12.22 7.42 11.78 7.42 11.5 7.7L8 11.2L4.5 7.7C4.22 7.42 3.78 7.42 3.5 7.7C3.22 7.98 3.22 8.42 3.5 8.7L7 12.2L3.5 15.7C3.22 15.98 3.22 16.42 3.5 16.7C3.78 16.98 4.22 16.98 4.5 16.7L8 13.2L11.5 16.7C11.78 16.98 12.22 16.98 12.5 16.7C12.78 16.42 12.78 15.98 12.5 15.7L9 12.2L12.5 8.7C12.78 8.42 12.78 7.98 12.5 7.7V7.7ZM19 1H9C7.9 1 7 1.9 7 3V5C7 5.55 7.45 6 8 6C8.55 6 9 5.55 9 5V4H19V20H9V19C9 18.45 8.55 18 8 18C7.45 18 7 18.45 7 19V21C7 22.1 7.9 23 9 23H19C20.1 23 21 22.1 21 21V3C21 1.9 20.1 1 19 1Z" fill="black"/>
</svg>
