<svg width="24" height="24" viewBox="0 0 24 24" fill="none" xmlns="http://www.w3.org/2000/svg">
<path d="M2.11998 2.32009C1.72998 1.93009 1.09998 1.93009 0.70998 2.32009C0.31998 2.71009 0.31998 3.34009 0.70998 3.73009L4.97998 8.00009C3.32998 8.01009 1.99998 9.35009 1.99998 11.0001V15.0001C1.99998 16.1001 2.89998 17.0001 3.99998 17.0001H5.99998V19.0001C5.99998 20.1001 6.89998 21.0001 7.99998 21.0001H16C16.55 21.0001 17.04 20.7801 17.4 20.4201L20.23 23.2501C20.62 23.6401 21.25 23.6401 21.64 23.2501C22.03 22.8601 22.03 22.2301 21.64 21.8401L2.11998 2.32009ZM15 19.0001H8.99998C8.44998 19.0001 7.99998 18.5501 7.99998 18.0001V14.0001H10.98L15.7 18.7201C15.51 18.8901 15.27 19.0001 15 19.0001ZM19 8.00009H10.63L19.63 17.0001H20C21.1 17.0001 22 16.1001 22 15.0001V11.0001C22 9.34009 20.66 8.00009 19 8.00009ZM19 12.0001C18.45 12.0001 18 11.5501 18 11.0001C18 10.4501 18.45 10.0001 19 10.0001C19.55 10.0001 20 10.4501 20 11.0001C20 11.5501 19.55 12.0001 19 12.0001ZM17 7.00009C17.55 7.00009 18 6.55009 18 6.00009V4.00009C18 3.45009 17.55 3.00009 17 3.00009H6.99998C6.62998 3.00009 6.31998 3.21009 6.14998 3.51009L9.62998 7.00009H17Z" fill="black"/>
</svg>
