<svg width="24" height="24" viewBox="0 0 24 24" fill="none" xmlns="http://www.w3.org/2000/svg">
<path d="M6.18 19.9999C7.38398 19.9999 8.36 19.0239 8.36 17.8199C8.36 16.6159 7.38398 15.6399 6.18 15.6399C4.97602 15.6399 4 16.6159 4 17.8199C4 19.0239 4.97602 19.9999 6.18 19.9999Z" fill="black"/>
<path d="M5.59 10.2301C4.75 10.0901 4 10.7801 4 11.6301C4 12.3401 4.53 12.9101 5.23 13.0301C8.15 13.5401 10.45 15.8501 10.97 18.7701C11.09 19.4701 11.66 20.0001 12.37 20.0001C13.22 20.0001 13.91 19.2501 13.78 18.4101C13.1 14.2101 9.79 10.9001 5.59 10.2301V10.2301ZM5.56 4.52009C4.73 4.43009 4 5.10009 4 5.93009C4 6.66009 4.55 7.26009 5.27 7.33009C11.28 7.93009 16.06 12.7101 16.66 18.7201C16.73 19.4501 17.33 20.0001 18.06 20.0001C18.9 20.0001 19.56 19.2701 19.48 18.4401C18.75 11.1001 12.91 5.25009 5.56 4.52009V4.52009Z" fill="black"/>
</svg>
