<svg width="24" height="24" viewBox="0 0 24 24" fill="none" xmlns="http://www.w3.org/2000/svg">
<path d="M17.65 4.3499L14.86 7.1399C14.54 7.4599 14.76 7.9999 15.21 7.9999H17V14.8799C17 15.8799 16.33 16.8099 15.34 16.9699C14.09 17.1799 13 16.2099 13 14.9999V8.1699C13 6.0799 11.47 4.2199 9.39 4.0199C7.01 3.7899 5 5.6599 5 7.9999V14.9999H3.21C2.76 14.9999 2.54 15.5399 2.86 15.8499L5.65 18.6399C5.85 18.8399 6.16 18.8399 6.36 18.6399L9.15 15.8499C9.46 15.5399 9.24 14.9999 8.79 14.9999H7V8.1199C7 7.1199 7.67 6.1899 8.66 6.0299C9.91 5.8199 11 6.7899 11 7.9999V14.8299C11 16.9199 12.53 18.7799 14.61 18.9799C16.99 19.2099 19 17.3399 19 14.9999V7.9999H20.79C21.24 7.9999 21.46 7.4599 21.14 7.1499L18.35 4.3599C18.16 4.1599 17.84 4.1599 17.65 4.3499V4.3499Z" fill="black"/>
</svg>
