<svg width="24" height="24" viewBox="0 0 24 24" fill="none" xmlns="http://www.w3.org/2000/svg">
<path d="M18 14C18 10.91 14.4 6.11995 12.77 4.12995C12.37 3.63995 11.62 3.63995 11.22 4.12995C10.76 4.69995 10.14 5.48995 9.49001 6.39995L17.93 14.84C17.97 14.56 18 14.28 18 14ZM19.29 19.01L6.12001 5.83995C5.73001 5.44995 5.10001 5.44995 4.71001 5.83995C4.32001 6.22995 4.32001 6.85995 4.71001 7.24995L7.32001 9.85995C6.55001 11.33 6.00001 12.79 6.00001 14C6.00001 17.31 8.69001 20 12 20C13.52 20 14.9 19.43 15.95 18.5L17.87 20.42C18.26 20.81 18.89 20.81 19.28 20.42C19.68 20.04 19.68 19.4 19.29 19.01V19.01Z" fill="black"/>
</svg>
