<svg width="24" height="24" viewBox="0 0 24 24" fill="none" xmlns="http://www.w3.org/2000/svg">
<path d="M18.5 8C19.33 8 20 7.33 20 6.5C20 5.67 19.33 5 18.5 5H6.39001L9.39001 8H11.22L10.67 9.28L12.76 11.37L14.21 8H18.5ZM17.44 18.88L4.12001 5.56C3.73001 5.17 3.10001 5.17 2.71001 5.56C2.32001 5.95 2.32001 6.58 2.71001 6.97L8.97001 13.23L7.32001 17.07C6.93001 17.99 7.60001 19 8.59001 19C9.14001 19 9.64001 18.67 9.86001 18.16L11.07 15.33L16.02 20.28C16.41 20.67 17.04 20.67 17.43 20.28C17.83 19.9 17.83 19.27 17.44 18.88V18.88Z" fill="black"/>
</svg>
