<svg width="24" height="24" viewBox="0 0 24 24" fill="none" xmlns="http://www.w3.org/2000/svg">
<path d="M6.29001 14.29L9.00001 17V21C9.00001 21.55 9.45001 22 10 22H14C14.55 22 15 21.55 15 21V17L17.71 14.29C17.9 14.1 18 13.85 18 13.58V10C18 9.45 17.55 9 17 9H7.00001C6.45001 9 6.00001 9.45 6.00001 10V13.59C6.00001 13.85 6.11001 14.11 6.29001 14.29ZM12 2C12.55 2 13 2.45 13 3V4C13 4.55 12.55 5 12 5C11.45 5 11 4.55 11 4V3C11 2.45 11.45 2 12 2ZM4.21001 5.17C4.60001 4.78 5.23001 4.78 5.63001 5.17L6.34001 5.88C6.73001 6.27 6.73001 6.9 6.34001 7.29C5.95001 7.68 5.32001 7.68 4.93001 7.29L4.21001 6.58C3.82001 6.19 3.82001 5.56 4.21001 5.17ZM17.67 5.88L18.38 5.17C18.77 4.78 19.4 4.78 19.79 5.17C20.18 5.56 20.18 6.19 19.79 6.58L19.08 7.29C18.69 7.68 18.06 7.68 17.67 7.29C17.28 6.9 17.28 6.27 17.67 5.88Z" fill="black"/>
</svg>
