<svg width="24" height="24" viewBox="0 0 24 24" fill="none" xmlns="http://www.w3.org/2000/svg">
<path d="M12.5 6.9C13.92 6.9 14.63 7.44 14.89 8.3C15.02 8.73 15.45 9 15.9 9H15.96C16.66 9 17.18 8.29 16.93 7.64C16.49 6.49 15.52 5.56 14 5.19V4.5C14 3.67 13.33 3 12.5 3C11.67 3 11 3.67 11 4.5V5.16C10.61 5.24 10.25 5.37 9.90001 5.52L11.41 7.03C11.73 6.95 12.1 6.9 12.5 6.9ZM4.77001 4.62C4.38001 5.01 4.38001 5.64 4.77001 6.03L7.50001 8.77C7.50001 10.85 9.06001 11.99 11.41 12.68L14.92 16.19C14.58 16.68 13.87 17.1 12.5 17.1C10.85 17.1 10 16.51 9.67001 15.67C9.52001 15.28 9.18001 15 8.77001 15H8.60001C7.88001 15 7.36001 15.74 7.65001 16.39C8.24001 17.72 9.54001 18.51 11.01 18.83V19.5C11.01 20.33 11.68 21 12.51 21C13.34 21 14.01 20.33 14.01 19.5V18.85C14.97 18.67 15.84 18.3 16.47 17.73L17.98 19.24C18.37 19.63 19 19.63 19.39 19.24C19.78 18.85 19.78 18.22 19.39 17.83L6.18001 4.62C5.79001 4.23 5.16001 4.23 4.77001 4.62Z" fill="black"/>
</svg>
