<svg width="24" height="24" viewBox="0 0 24 24" fill="none" xmlns="http://www.w3.org/2000/svg">
<path d="M10.52 10.73L7.3 5.72C6.82 4.97 7.35 4 8.23 4C8.62 4 8.97 4.2 9.18 4.53L11.94 8.99H12.06L14.8 4.54C15.01 4.2 15.37 4 15.76 4C16.64 4 17.18 4.98 16.7 5.72L13.47 10.72L17.02 16.27C17.5 17.02 16.96 18 16.08 18C15.7 18 15.34 17.8 15.13 17.48L12.06 12.59H11.94L8.87 17.48C8.67 17.8 8.31 18 7.92 18C7.04 18 6.5 17.03 6.98 16.28L10.52 10.73ZM23 19.5C23 19.22 22.78 19 22.5 19H20V18H22C22.55 18 23 17.55 23 17V16C23 15.45 22.55 15 22 15H19.5C19.22 15 19 15.22 19 15.5C19 15.78 19.22 16 19.5 16H22V17H20C19.45 17 19 17.45 19 18V19C19 19.55 19.45 20 20 20H22.5C22.78 20 23 19.78 23 19.5Z" fill="black"/>
</svg>
