<svg width="24" height="24" viewBox="0 0 24 24" fill="none" xmlns="http://www.w3.org/2000/svg">
<path d="M4.64997 9.35021L2.69997 11.3002C2.30997 11.6902 2.30997 12.3202 2.69997 12.7102L4.64997 14.6602C5.13997 15.1502 5.92997 15.1502 6.41997 14.6602C6.89997 14.1702 6.89997 13.3902 6.41997 12.9002L5.53997 12.0002L6.41997 11.1102C6.89997 10.6202 6.89997 9.84021 6.41997 9.35021C5.93997 8.86021 5.13997 8.86021 4.64997 9.35021ZM17.58 9.35021C17.1 9.84021 17.1 10.6202 17.58 11.1102L18.46 12.0002L17.58 12.8902C17.1 13.3802 17.1 14.1602 17.58 14.6502C18.07 15.1402 18.86 15.1402 19.35 14.6502L21.3 12.7002C21.69 12.3102 21.69 11.6802 21.3 11.2902L19.35 9.34021C18.86 8.86021 18.06 8.86021 17.58 9.35021V9.35021ZM12 18.4602L11.11 17.5802C10.62 17.1002 9.83997 17.1002 9.34997 17.5802C8.85997 18.0702 8.85997 18.8602 9.34997 19.3502L11.3 21.3002C11.69 21.6902 12.32 21.6902 12.71 21.3002L14.66 19.3502C15.15 18.8602 15.15 18.0702 14.66 17.5802C14.17 17.1002 13.39 17.1002 12.9 17.5802L12 18.4602V18.4602ZM9.34997 6.42021C9.83997 6.90021 10.62 6.90021 11.11 6.42021L12 5.54021L12.89 6.42021C13.38 6.90021 14.16 6.90021 14.65 6.42021C15.14 5.93021 15.14 5.14021 14.65 4.65021L12.7 2.70021C12.31 2.31021 11.68 2.31021 11.29 2.70021L9.34997 4.65021C8.85997 5.14021 8.85997 5.94021 9.34997 6.42021Z" fill="black"/>
<path d="M12 15C13.6569 15 15 13.6569 15 12C15 10.3431 13.6569 9 12 9C10.3431 9 9 10.3431 9 12C9 13.6569 10.3431 15 12 15Z" fill="black"/>
</svg>
