<svg width="24" height="24" viewBox="0 0 24 24" fill="none" xmlns="http://www.w3.org/2000/svg">
<path d="M10 8.5001V15.5001C10 15.9101 10.47 16.1501 10.8 15.9001L15.47 12.4001C15.74 12.2001 15.74 11.8001 15.47 11.6001L10.8 8.1001C10.47 7.8501 10 8.0901 10 8.5001ZM11 3.2301C11 2.5901 10.41 2.1001 9.79 2.2401C8.67 2.5001 7.61 2.9401 6.67 3.5401C6.14 3.8801 6.06 4.6401 6.51 5.0901C6.83 5.4101 7.34 5.4901 7.72 5.2501C8.49 4.7601 9.34 4.4001 10.26 4.2001C10.7 4.1001 11 3.6901 11 3.2301V3.2301ZM5.1 6.5101C4.64 6.0601 3.89 6.1301 3.55 6.6701C2.95 7.6101 2.51 8.6701 2.25 9.7901C2.11 10.4101 2.59 11.0001 3.23 11.0001C3.68 11.0001 4.1 10.7001 4.19 10.2601C4.39 9.3501 4.76 8.4901 5.24 7.7301C5.5 7.3401 5.42 6.8301 5.1 6.5101V6.5101ZM3.23 13.0001C2.59 13.0001 2.1 13.5901 2.24 14.2101C2.5 15.3301 2.94 16.3801 3.54 17.3301C3.88 17.8701 4.64 17.9401 5.09 17.4901C5.41 17.1701 5.49 16.6601 5.24 16.2801C4.75 15.5201 4.39 14.6701 4.19 13.7501C4.1 13.3001 3.69 13.0001 3.23 13.0001V13.0001ZM6.67 20.4501C7.62 21.0501 8.67 21.4901 9.79 21.7501C10.41 21.8901 11 21.4001 11 20.7701C11 20.3201 10.7 19.9001 10.26 19.8101C9.35 19.6101 8.49 19.2401 7.73 18.7601C7.34 18.5201 6.84 18.5901 6.52 18.9201C6.06 19.3601 6.13 20.1101 6.67 20.4501V20.4501ZM22 12.0001C22 16.7301 18.7 20.7101 14.27 21.7401C13.65 21.8901 13.05 21.4001 13.05 20.7601C13.05 20.3001 13.36 19.9001 13.8 19.7901C17.35 18.9701 20 15.7901 20 12.0001C20 8.2101 17.35 5.0301 13.8 4.2101C13.36 4.1101 13.05 3.7001 13.05 3.2401C13.05 2.6001 13.65 2.1101 14.27 2.2601C18.7 3.2901 22 7.2701 22 12.0001Z" fill="black"/>
</svg>
