<svg width="24" height="24" viewBox="0 0 24 24" fill="none" xmlns="http://www.w3.org/2000/svg">
<path d="M21 14.2001V8.91008C21 8.02008 19.92 7.57008 19.29 8.20008L17 10.5001V7.00008C17 6.45008 16.55 6.00008 16 6.00008H10.39L19.3 14.9101C19.92 15.5401 21 15.0901 21 14.2001ZM2.70998 2.56008C2.31998 2.95008 2.31998 3.58008 2.70998 3.97008L4.72998 6.00008H3.99998C3.44998 6.00008 2.99998 6.45008 2.99998 7.00008V17.0001C2.99998 17.5501 3.44998 18.0001 3.99998 18.0001H16C16.21 18.0001 16.39 17.9201 16.55 17.8201L19.03 20.3001C19.42 20.6901 20.05 20.6901 20.44 20.3001C20.83 19.9101 20.83 19.2801 20.44 18.8901L4.11998 2.56008C3.72998 2.17008 3.09998 2.17008 2.70998 2.56008Z" fill="black"/>
</svg>
