<svg width="24" height="24" viewBox="0 0 24 24" fill="none" xmlns="http://www.w3.org/2000/svg">
<path d="M21.29 5.89019L11.29 15.8902C10.9 16.2802 10.27 16.2802 9.88 15.8902L7.05 13.0602C6.66 12.6702 6.66 12.0402 7.05 11.6502C7.44 11.2602 8.07 11.2602 8.46 11.6502L10.58 13.7702L19.87 4.48019C20.26 4.09019 20.89 4.09019 21.28 4.48019C21.68 4.87019 21.68 5.50019 21.29 5.89019ZM12 20.0002C7.29 20.0002 3.52 15.9102 4.05 11.1002C4.44 7.58019 7.17 4.69019 10.66 4.11019C12.47 3.81019 14.19 4.13019 15.65 4.89019C16.04 5.09019 16.51 5.02019 16.82 4.71019C17.3 4.23019 17.18 3.42019 16.58 3.11019C15.11 2.36019 13.45 1.95019 11.68 2.00019C6.54 2.16019 2.27 6.34019 2.01 11.4702C1.72 17.2402 6.3 22.0002 12 22.0002C13.2 22.0002 14.34 21.7902 15.41 21.4002C16.09 21.1502 16.28 20.2702 15.76 19.7502C15.49 19.4802 15.08 19.3802 14.72 19.5202C13.87 19.8302 12.95 20.0002 12 20.0002ZM19 15.0002H17C16.45 15.0002 16 15.4502 16 16.0002C16 16.5502 16.45 17.0002 17 17.0002H19V19.0002C19 19.5502 19.45 20.0002 20 20.0002C20.55 20.0002 21 19.5502 21 19.0002V17.0002H23C23.55 17.0002 24 16.5502 24 16.0002C24 15.4502 23.55 15.0002 23 15.0002H21V13.0002C21 12.4502 20.55 12.0002 20 12.0002C19.45 12.0002 19 12.4502 19 13.0002V15.0002Z" fill="black"/>
</svg>
