<svg width="24" height="24" viewBox="0 0 24 24" fill="none" xmlns="http://www.w3.org/2000/svg">
<path d="M21.29 4.12021L16.7 8.71021L18.29 10.3002C18.92 10.9302 18.47 12.0102 17.58 12.0102H13C12.45 12.0102 12 11.5602 12 11.0102V6.41021C12 5.52021 13.08 5.07021 13.71 5.70021L15.3 7.29021L19.89 2.70021C20.28 2.31021 20.91 2.31021 21.3 2.70021C21.68 3.10021 21.68 3.73021 21.29 4.12021ZM4.11997 21.2902L8.70997 16.7002L10.3 18.2902C10.93 18.9202 12.01 18.4702 12.01 17.5802V13.0002C12.01 12.4502 11.56 12.0002 11.01 12.0002H6.40997C5.51997 12.0002 5.06997 13.0802 5.69997 13.7102L7.28997 15.3002L2.69997 19.8902C2.30997 20.2802 2.30997 20.9102 2.69997 21.3002C3.09997 21.6802 3.72997 21.6802 4.11997 21.2902Z" fill="black"/>
</svg>
