<svg width="24" height="24" viewBox="0 0 24 24" fill="none" xmlns="http://www.w3.org/2000/svg">
<path d="M20.47 5.6298C20.86 6.0198 20.86 6.6398 20.47 7.0298L9.13001 18.3698C8.74001 18.7598 8.12001 18.7598 7.73001 18.3698L3.53001 14.1698C3.14001 13.7798 3.14001 13.1598 3.53001 12.7698C3.92001 12.3798 4.54001 12.3798 4.93001 12.7698L8.43001 16.2698L19.07 5.6298C19.46 5.2398 20.08 5.2398 20.47 5.6298ZM18.36 3.5098L8.43001 13.4398L5.64001 10.6498C4.86001 9.8698 3.59001 9.8698 2.81001 10.6498L1.41001 12.0498C0.630012 12.8298 0.630012 14.0998 1.41001 14.8798L7.01001 20.4798C7.79001 21.2598 9.06001 21.2598 9.84001 20.4798L22.59 7.7398C23.37 6.9598 23.37 5.6898 22.59 4.9098L21.19 3.5098C20.4 2.7298 19.14 2.7298 18.36 3.5098V3.5098Z" fill="black"/>
</svg>
