<svg width="24" height="24" viewBox="0 0 24 24" fill="none" xmlns="http://www.w3.org/2000/svg">
<path d="M17.3 6.2998C16.91 5.9098 16.28 5.9098 15.89 6.2998L10.25 11.9398L11.66 13.3498L17.3 7.6998C17.68 7.3198 17.68 6.6798 17.3 6.2998V6.2998ZM21.54 6.2898L11.66 16.1698L8.18002 12.6998C7.79002 12.3098 7.16001 12.3098 6.77001 12.6998C6.38001 13.0898 6.38001 13.7198 6.77001 14.1098L10.95 18.2898C11.34 18.6798 11.97 18.6798 12.36 18.2898L22.95 7.7098C23.34 7.3198 23.34 6.6898 22.95 6.2998H22.94C22.56 5.8998 21.93 5.8998 21.54 6.2898ZM1.12001 14.1198L5.30001 18.2998C5.69001 18.6898 6.32001 18.6898 6.71001 18.2998L7.41001 17.5998L2.53001 12.6998C2.14001 12.3098 1.51001 12.3098 1.12001 12.6998C0.730015 13.0898 0.730015 13.7298 1.12001 14.1198V14.1198Z" fill="black"/>
</svg>
