<svg width="24" height="24" viewBox="0 0 24 24" fill="none" xmlns="http://www.w3.org/2000/svg">
<path d="M20.5 18.9998H3.50001C2.95001 18.9998 2.50001 19.4498 2.50001 19.9998C2.50001 20.5498 2.95001 20.9998 3.50001 20.9998H20.5C21.05 20.9998 21.5 20.5498 21.5 19.9998C21.5 19.4498 21.05 18.9998 20.5 18.9998ZM22.07 9.63979C21.85 8.83979 21.03 8.36979 20.23 8.57979L14.92 9.99979L8.46001 3.97979C8.19001 3.71979 7.80001 3.62979 7.44001 3.72979C6.76001 3.91979 6.44001 4.69979 6.79001 5.30979L10.23 11.2698L5.26001 12.5998L3.69001 11.3598C3.44001 11.1698 3.12001 11.0998 2.81001 11.1798L2.48001 11.2698C2.16001 11.3498 2.01001 11.7198 2.18001 11.9998L4.06001 15.2498C4.29001 15.6398 4.75001 15.8298 5.18001 15.7198L21 11.4798C21.8 11.2598 22.28 10.4398 22.07 9.63979Z" fill="black"/>
</svg>
