<svg width="24" height="24" viewBox="0 0 24 24" fill="none" xmlns="http://www.w3.org/2000/svg">
<path d="M15.1 19.3698L16.1 21.1098C15.14 21.5498 14.09 21.8398 13 21.9498V19.9298C13.74 19.8398 14.44 19.6498 15.1 19.3698ZM4.06999 12.9998H2.04999C2.15999 14.0998 2.44999 15.1398 2.88999 16.0998L4.62999 15.0998C4.34999 14.4398 4.15999 13.7398 4.06999 12.9998ZM15.1 4.6298L16.1 2.8898C15.14 2.4498 14.1 2.1598 13 2.0498V4.0698C13.74 4.1598 14.44 4.3498 15.1 4.6298ZM19.93 10.9998H21.95C21.84 9.8998 21.55 8.85981 21.11 7.89981L19.37 8.8998C19.65 9.5598 19.84 10.2598 19.93 10.9998ZM8.89999 19.3698L7.89999 21.1098C8.85999 21.5498 9.90999 21.8398 11 21.9498V19.9298C10.26 19.8398 9.55999 19.6498 8.89999 19.3698ZM11 4.0698V2.0498C9.89999 2.1598 8.85999 2.4498 7.89999 2.8898L8.89999 4.6298C9.55999 4.3498 10.26 4.1598 11 4.0698ZM18.36 7.1698L20.1 6.1598C19.47 5.2898 18.7 4.5198 17.83 3.8898L16.82 5.6298C17.41 6.0798 17.92 6.5898 18.36 7.1698ZM4.62999 8.8998L2.88999 7.89981C2.44999 8.85981 2.15999 9.8998 2.04999 10.9998H4.06999C4.15999 10.2598 4.34999 9.5598 4.62999 8.8998ZM19.93 12.9998C19.84 13.7398 19.65 14.4398 19.37 15.0998L21.11 16.0998C21.55 15.1398 21.84 14.0898 21.95 12.9998H19.93V12.9998ZM16.83 18.3598L17.84 20.0998C18.71 19.4698 19.48 18.6998 20.11 17.8298L18.37 16.8198C17.92 17.4098 17.41 17.9198 16.83 18.3598ZM7.16999 5.6398L6.16999 3.8898C5.28999 4.5298 4.52999 5.2898 3.89999 6.1698L5.63999 7.1798C6.07999 6.5898 6.58999 6.0798 7.16999 5.6398ZM5.63999 16.8298L3.89999 17.8298C4.52999 18.6998 5.29999 19.4698 6.16999 20.0998L7.17999 18.3598C6.58999 17.9198 6.07999 17.4098 5.63999 16.8298ZM12 6.9998C11.45 6.9998 11 7.4498 11 7.9998V11.5898C11 12.1198 11.21 12.6298 11.59 12.9998L14.59 15.9998C14.98 16.3898 15.61 16.3898 16 15.9998C16.39 15.6098 16.39 14.9798 16 14.5898L13 11.5898V7.9998C13 7.4498 12.55 6.9998 12 6.9998Z" fill="black"/>
</svg>
