<svg width="24" height="24" viewBox="0 0 24 24" fill="none" xmlns="http://www.w3.org/2000/svg">
<path d="M21.59 12.5801C21.84 12.2301 21.84 11.7701 21.59 11.4201L17.63 5.84007C17.27 5.33007 16.67 5.00007 16 5.00007H8.66001L19.36 15.7301L21.59 12.5801ZM2.72001 4.72007L3.59001 5.59007C3.23001 5.95007 3.00001 6.45007 3.00001 7.00007V17.0001C3.00001 18.1001 3.90001 19.0001 5.00001 19.0001H17L18.29 20.2901C18.68 20.6801 19.31 20.6801 19.7 20.2901C20.09 19.9001 20.09 19.2701 19.7 18.8801L4.14001 3.31007C3.76001 2.93007 3.13001 2.92007 2.74001 3.30007C2.33001 3.68007 2.33001 4.33007 2.72001 4.72007V4.72007Z" fill="black"/>
</svg>
