<svg width="24" height="24" viewBox="0 0 24 24" fill="none" xmlns="http://www.w3.org/2000/svg">
<path d="M0.710003 1.8301C0.320003 2.2201 0.320003 2.8501 0.710003 3.2401L4.39 6.9201L6.6 11.5801L5.25 14.0301C5.06 14.3601 4.97 14.7601 5.01 15.1801C5.11 16.2401 6.07 17.0001 7.13 17.0001H14.46L15.84 18.3801C15.34 18.7401 15.01 19.3301 15.01 20.0001C15.01 21.1001 15.9 22.0001 17 22.0001C17.67 22.0001 18.26 21.6701 18.62 21.1601L20.75 23.2901C21.14 23.6801 21.77 23.6801 22.16 23.2901C22.55 22.9001 22.55 22.2701 22.16 21.8801L2.12 1.8301C1.73 1.4401 1.1 1.4401 0.710003 1.8301V1.8301ZM7 15.0001L8.1 13.0001H10.46L12.46 15.0001H7ZM16.05 12.9401C16.59 12.8001 17.04 12.4501 17.3 11.9701L20.88 5.4801C21.25 4.8201 20.76 4.0001 20 4.0001H7.12L16.05 12.9401ZM7 18.0001C5.9 18.0001 5.01 18.9001 5.01 20.0001C5.01 21.1001 5.9 22.0001 7 22.0001C8.1 22.0001 9 21.1001 9 20.0001C9 18.9001 8.1 18.0001 7 18.0001Z" fill="black"/>
</svg>
