<svg width="24" height="24" viewBox="0 0 24 24" fill="none" xmlns="http://www.w3.org/2000/svg">
<path d="M13.25 3.00008C8.15999 2.86008 3.98999 6.94008 3.98999 12.0001H2.19999C1.74999 12.0001 1.52999 12.5401 1.84999 12.8501L4.63999 15.6501C4.83999 15.8501 5.14999 15.8501 5.34999 15.6501L8.13999 12.8501C8.45999 12.5401 8.22999 12.0001 7.78999 12.0001H5.98999C5.98999 8.10008 9.16999 4.95008 13.09 5.00008C16.81 5.05008 19.94 8.18008 19.99 11.9001C20.04 15.8101 16.89 19.0001 12.99 19.0001C11.38 19.0001 9.88999 18.4501 8.70999 17.5201C8.30999 17.2101 7.74999 17.2401 7.38999 17.6001C6.96999 18.0301 6.99999 18.7301 7.46999 19.1001C8.98999 20.2901 10.91 21.0001 12.99 21.0001C18.04 21.0001 22.13 16.8301 21.99 11.7401C21.86 7.05008 17.94 3.13008 13.25 3.00008V3.00008ZM12.74 8.00008C12.33 8.00008 11.99 8.34008 11.99 8.75008V12.4301C11.99 12.7801 12.18 13.1101 12.48 13.2901L15.6 15.1401C15.96 15.3501 16.42 15.2301 16.63 14.8801C16.84 14.5201 16.72 14.0601 16.37 13.8501L13.49 12.1401V8.74008C13.49 8.34008 13.16 8.00008 12.74 8.00008V8.00008Z" fill="black"/>
</svg>
