<svg width="24" height="24" viewBox="0 0 24 24" fill="none" xmlns="http://www.w3.org/2000/svg">
<path d="M15.5 14.0001H14.71L14.43 13.7301C15.63 12.3301 16.25 10.4201 15.91 8.39015C15.44 5.61015 13.12 3.40015 10.33 3.05015C6.54003 2.58015 3.30003 5.38015 3.03003 9.00015H5.05003C5.29003 6.88015 6.97003 5.20015 9.11003 5.02015C11.65 4.80015 14 6.95015 14 9.50015C14 11.9901 11.99 14.0001 9.50003 14.0001C9.33003 14.0001 9.17003 13.9701 9.00003 13.9501V15.9701C9.00003 15.9701 9.00003 15.9701 9.01003 15.9801C10.81 16.1101 12.48 15.5101 13.73 14.4301L14 14.7101V15.5001L18.25 19.7501C18.66 20.1601 19.33 20.1601 19.74 19.7501C20.15 19.3401 20.15 18.6701 19.74 18.2601L15.5 14.0001Z" fill="black"/>
<path d="M6.12002 11.17L4.00002 13.29L1.88002 11.17C1.68002 10.97 1.37002 10.97 1.17002 11.17C0.97002 11.37 0.97002 11.68 1.17002 11.88L3.29002 14L1.17002 16.12C0.97002 16.32 0.97002 16.63 1.17002 16.83C1.37002 17.03 1.68002 17.03 1.88002 16.83L4.00002 14.71L6.12002 16.83C6.32002 17.03 6.63002 17.03 6.83002 16.83C7.03002 16.63 7.03002 16.32 6.83002 16.12L4.71002 14L6.83002 11.88C7.03002 11.68 7.03002 11.37 6.83002 11.17C6.63002 10.98 6.32002 10.98 6.12002 11.17Z" fill="black"/>
</svg>
