<svg width="24" height="24" viewBox="0 0 24 24" fill="none" xmlns="http://www.w3.org/2000/svg">
<path d="M6.99999 6.12006C6.56999 5.77006 5.93999 5.82006 5.58999 6.25006L1.34999 11.3601C1.03999 11.7301 1.03999 12.2701 1.34999 12.6401L5.58999 17.7501C5.93999 18.1801 6.56999 18.2301 6.99999 17.8801C7.42999 17.5301 7.47999 16.9001 7.12999 16.4701L3.41999 12.0001L7.12999 7.53006C7.47999 7.10006 7.42999 6.47006 6.99999 6.12006ZM6.99999 13.0001H8.99999V11.0001H6.99999V13.0001ZM17 11.0001H15V13.0001H17V11.0001ZM11 13.0001H13V11.0001H11V13.0001ZM17 6.12006C16.57 6.47006 16.52 7.10006 16.87 7.53006L20.58 12.0001L16.87 16.4701C16.52 16.9001 16.58 17.5301 17 17.8801C17.43 18.2301 18.06 18.1801 18.41 17.7501L22.65 12.6401C22.96 12.2701 22.96 11.7301 22.65 11.3601L18.41 6.25006C18.06 5.83006 17.42 5.77006 17 6.12006V6.12006Z" fill="black"/>
</svg>
