<svg width="24" height="24" viewBox="0 0 24 24" fill="none" xmlns="http://www.w3.org/2000/svg">
<path d="M20 4H6.83002L14.83 12H19C19.55 12 20 12.45 20 13C20 13.55 19.55 14 19 14H16.83L21.76 18.93C21.91 18.65 22 18.34 22 18V6C22 4.9 21.1 4 20 4Z" fill="black"/>
<path d="M20 20.0002L14 14.0002L12.29 12.2902L12 12.0002L3.16002 3.16018C2.77002 2.77018 2.14002 2.77018 1.75002 3.16018C1.36002 3.55018 1.36002 4.18018 1.75002 4.57018L2.24002 5.06018C2.09002 5.35018 2.00002 5.66018 2.00002 6.00018V18.0002C2.00002 19.1002 2.90002 20.0002 4.00002 20.0002H17.17L19.42 22.2502C19.81 22.6402 20.44 22.6402 20.83 22.2502C21.22 21.8602 21.22 21.2302 20.83 20.8402L20 20.0002ZM8.00002 13.0002C8.00002 13.5502 7.55002 14.0002 7.00002 14.0002H5.00002C4.45002 14.0002 4.00002 13.5502 4.00002 13.0002C4.00002 12.4502 4.45002 12.0002 5.00002 12.0002H7.00002C7.55002 12.0002 8.00002 12.4502 8.00002 13.0002ZM14 17.0002C14 17.5502 13.55 18.0002 13 18.0002H5.00002C4.45002 18.0002 4.00002 17.5502 4.00002 17.0002C4.00002 16.4502 4.45002 16.0002 5.00002 16.0002H13C13.08 16.0002 13.14 16.0302 13.21 16.0402L13.95 16.7802C13.97 16.8602 14 16.9202 14 17.0002Z" fill="black"/>
</svg>
