<svg width="24" height="24" viewBox="0 0 24 24" fill="none" xmlns="http://www.w3.org/2000/svg">
<path d="M16 17.01V11C16 10.45 15.55 10 15 10C14.45 10 14 10.45 14 11V17.01H12.21C11.76 17.01 11.54 17.55 11.86 17.86L14.65 20.64C14.85 20.83 15.16 20.83 15.36 20.64L18.15 17.86C18.47 17.55 18.24 17.01 17.8 17.01H16V17.01ZM8.65 3.35002L5.86 6.14002C5.54 6.45002 5.76 6.99002 6.21 6.99002H8V13C8 13.55 8.45 14 9 14C9.55 14 10 13.55 10 13V6.99002H11.79C12.24 6.99002 12.46 6.45002 12.14 6.14002L9.35 3.35002C9.16 3.16002 8.84 3.16002 8.65 3.35002Z" fill="black"/>
</svg>
