<svg width="24" height="24" viewBox="0 0 24 24" fill="none" xmlns="http://www.w3.org/2000/svg">
<path d="M17.61 9.84986L18.17 10.4099L9.69003 18.8999C9.30003 19.2899 9.30003 19.9199 9.69003 20.3099C10.08 20.6999 10.71 20.6999 11.1 20.3099L19.59 11.8199L20.15 12.3799C20.46 12.6999 21 12.4799 21 12.0399V9.49986C21 9.21986 20.78 8.99986 20.5 8.99986H17.96C17.52 8.99986 17.3 9.53986 17.61 9.84986V9.84986ZM8.48003 12.7499L12.02 9.20986L13.62 9.87986C13.98 10.0299 14.39 9.94986 14.67 9.66986C15.16 9.17986 14.99 8.35986 14.35 8.09986L5.26003 4.49986C4.83003 4.33986 4.35003 4.43986 4.03003 4.75986C3.71003 5.07986 3.61003 5.55986 3.78003 5.98986L7.39003 15.0799C7.64003 15.7199 8.47003 15.8899 8.96003 15.3999C9.24003 15.1199 9.32003 14.7099 9.17003 14.3499L8.48003 12.7499V12.7499ZM7.66003 11.0299L5.43003 6.15986L10.3 8.38986L7.66003 11.0299V11.0299Z" fill="black"/>
</svg>
