<svg width="24" height="24" viewBox="0 0 24 24" fill="none" xmlns="http://www.w3.org/2000/svg">
<path d="M20.49 20.4898L3.51 3.50978C3.12 3.11978 2.49 3.11978 2.1 3.50978C1.71 3.89978 1.71 4.52978 2.1 4.91978L3.66 6.47978C2.41 8.35978 1.78 10.6898 2.07 13.1798C2.6 17.7198 6.28 21.3998 10.81 21.9198C13.3 22.2098 15.62 21.5798 17.51 20.3298L19.07 21.8898C19.46 22.2798 20.09 22.2798 20.48 21.8898C20.88 21.5098 20.88 20.8798 20.49 20.4898ZM9.88 15.8898L7.05 13.0598C6.66 12.6698 6.66 12.0398 7.05 11.6498C7.44 11.2598 8.07 11.2598 8.46 11.6498L10.58 13.7698L10.76 13.5898L12.17 14.9998L11.29 15.8798C10.9 16.2798 10.27 16.2798 9.88 15.8898ZM13.59 10.7598L6.49 3.65978C8.36999 2.40978 10.7 1.77978 13.19 2.06978C17.73 2.59978 21.41 6.27978 21.93 10.8098C22.22 13.2998 21.59 15.6298 20.34 17.5098L15 12.1698L16.94 10.2298C17.33 9.83978 17.33 9.20978 16.94 8.81978C16.55 8.42978 15.92 8.42978 15.53 8.81978L13.59 10.7598Z" fill="black"/>
</svg>
