<svg width="24" height="24" viewBox="0 0 24 24" fill="none" xmlns="http://www.w3.org/2000/svg">
<path d="M16.7 5.29977L18.14 3.85977C18.46 3.53977 18.23 3.00977 17.79 3.00977H11.5C11.22 3.00977 11 3.22977 11 3.50977V9.79977C11 10.2498 11.54 10.4698 11.85 10.1498L13.3 8.69977C15.27 10.1598 16.55 12.4798 16.55 15.1198C16.55 15.7798 16.47 16.4298 16.31 17.0398C16.19 17.5398 16.79 17.8998 17.15 17.5298C18.63 15.9998 19.55 13.9198 19.55 11.6198C19.55 9.10977 18.44 6.85977 16.7 5.29977Z" fill="black"/>
<path d="M12.15 13.86L10.7 15.3C8.73 13.84 7.45 11.52 7.45 8.88C7.45 8.22 7.53 7.57 7.69 6.96C7.81 6.46 7.21 6.1 6.85 6.47C5.37 8 4.45 10.08 4.45 12.38C4.45 14.9 5.55 17.15 7.29 18.71L5.85 20.15C5.53 20.47 5.76 21 6.2 21H12.49C12.77 21 12.99 20.78 12.99 20.5V14.21C13 13.77 12.46 13.54 12.15 13.86Z" fill="black"/>
</svg>
