<svg width="24" height="24" viewBox="0 0 24 24" fill="none" xmlns="http://www.w3.org/2000/svg">
<g clip-path="url(#clip0_6524_20482)">
<rect width="24" height="24" fill="white" fill-opacity="0.01"/>
<path fill-rule="evenodd" clip-rule="evenodd" d="M3 0H21C21.7956 0 22.5587 0.31607 23.1213 0.87868C23.6839 1.44129 24 2.20435 24 3V21C24 21.7956 23.6839 22.5587 23.1213 23.1213C22.5587 23.6839 21.7956 24 21 24H3C2.20435 24 1.44129 23.6839 0.87868 23.1213C0.31607 22.5587 0 21.7956 0 21L0 3C0 2.20435 0.31607 1.44129 0.87868 0.87868C1.44129 0.31607 2.20435 0 3 0V0ZM10 17L8.707 15.707C8.51947 15.5195 8.26516 15.4142 8 15.4142C7.73484 15.4142 7.48053 15.5195 7.293 15.707L4 19H20V15.4L16.705 11.776C16.6139 11.6759 16.5035 11.5953 16.3804 11.5392C16.2573 11.483 16.1241 11.4524 15.9888 11.4492C15.8535 11.446 15.719 11.4703 15.5934 11.5207C15.4678 11.571 15.3537 11.6463 15.258 11.742L10 17ZM6.667 10.333C7.02151 10.3399 7.37384 10.276 7.70337 10.145C8.03289 10.0141 8.333 9.81881 8.58615 9.57052C8.83929 9.32224 9.04038 9.02596 9.17766 8.69903C9.31493 8.3721 9.38564 8.02108 9.38564 7.6665C9.38564 7.31192 9.31493 6.9609 9.17766 6.63397C9.04038 6.30704 8.83929 6.01076 8.58615 5.76248C8.333 5.51419 8.03289 5.31887 7.70337 5.18795C7.37384 5.05703 7.02151 4.99313 6.667 5C5.96874 5.01352 5.30365 5.3004 4.81462 5.79899C4.32559 6.29759 4.05164 6.96811 4.05164 7.6665C4.05164 8.36489 4.32559 9.03541 4.81462 9.53401C5.30365 10.0326 5.96874 10.3195 6.667 10.333Z" fill="#FFAB00"/>
</g>
<defs>
<clipPath id="clip0_6524_20482">
<rect width="24" height="24" fill="white"/>
</clipPath>
</defs>
</svg>
