<svg width="24" height="24" viewBox="0 0 24 24" fill="none" xmlns="http://www.w3.org/2000/svg">
<g clip-path="url(#clip0_6524_20478)">
<rect width="24" height="24" fill="white" fill-opacity="0.01"/>
<path fill-rule="evenodd" clip-rule="evenodd" d="M3 0H21C21.7956 0 22.5587 0.31607 23.1213 0.87868C23.6839 1.44129 24 2.20435 24 3V21C24 21.7956 23.6839 22.5587 23.1213 23.1213C22.5587 23.6839 21.7956 24 21 24H3C2.20435 24 1.44129 23.6839 0.87868 23.1213C0.31607 22.5587 0 21.7956 0 21L0 3C0 2.20435 0.31607 1.44129 0.87868 0.87868C1.44129 0.31607 2.20435 0 3 0V0ZM4.846 12.17H5.329C6.445 12.17 6.532 11.848 6.532 11.394C6.532 10.876 6.264 10.623 5.715 10.623H4.846V12.169V12.17ZM11.136 14.353H11.8C12.542 14.353 13.301 14.133 13.301 12.498C13.301 10.848 12.499 10.638 11.8 10.638H11.135V14.353H11.136ZM4.462 15.99H3.382C3.2805 15.9895 3.18335 15.9488 3.11176 15.8768C3.04018 15.8049 3 15.7075 3 15.606V9.383C3 9.173 3.171 9 3.383 9H5.877C7.36 9 8.397 9.984 8.397 11.394C8.397 12.824 7.382 13.784 5.872 13.784H4.846V15.606C4.846 15.7077 4.80568 15.8052 4.73388 15.8772C4.66209 15.9492 4.56467 15.9897 4.463 15.99H4.462ZM11.912 15.99H9.672C9.62157 15.99 9.57164 15.9801 9.52505 15.9608C9.47846 15.9415 9.43613 15.9132 9.40047 15.8775C9.36481 15.8419 9.33653 15.7995 9.31723 15.753C9.29793 15.7064 9.288 15.6564 9.288 15.606V9.383C9.288 9.173 9.46 9 9.671 9H11.913C14.02 9 15.181 10.237 15.181 12.484C15.181 14.744 14.021 15.99 11.913 15.99H11.912ZM17.688 15.99H16.608C16.5576 15.99 16.5076 15.9801 16.4611 15.9608C16.4145 15.9415 16.3721 15.9132 16.3365 15.8775C16.3008 15.8419 16.2725 15.7995 16.2532 15.753C16.2339 15.7064 16.224 15.6564 16.224 15.606V9.383C16.224 9.173 16.396 9 16.607 9H20.616C20.826 9 20.999 9.172 20.999 9.383V10.263C20.999 10.3646 20.9586 10.462 20.8868 10.5338C20.815 10.6056 20.7176 10.646 20.616 10.646H18.071V11.786H20.363C20.575 11.786 20.746 11.958 20.746 12.169V13.036C20.746 13.246 20.575 13.419 20.363 13.419H18.071V15.606C18.071 15.7077 18.0307 15.8052 17.9589 15.8772C17.8871 15.9492 17.7897 15.9897 17.688 15.99Z" fill="#FF5630"/>
</g>
<defs>
<clipPath id="clip0_6524_20478">
<rect width="24" height="24" fill="white"/>
</clipPath>
</defs>
</svg>
