<svg width="24" height="24" viewBox="0 0 24 24" fill="none" xmlns="http://www.w3.org/2000/svg">
<g clip-path="url(#clip0_6524_20486)">
<rect width="24" height="24" fill="white" fill-opacity="0.01"/>
<path fill-rule="evenodd" clip-rule="evenodd" d="M3 0H21C21.7956 0 22.5587 0.31607 23.1213 0.87868C23.6839 1.44129 24 2.20435 24 3V21C24 21.7956 23.6839 22.5587 23.1213 23.1213C22.5587 23.6839 21.7956 24 21 24H3C2.20435 24 1.44129 23.6839 0.87868 23.1213C0.31607 22.5587 0 21.7956 0 21L0 3C0 2.20435 0.31607 1.44129 0.87868 0.87868C1.44129 0.31607 2.20435 0 3 0V0ZM4.376 6.013C4.27165 6.02771 4.17613 6.07963 4.10704 6.1592C4.03795 6.23877 3.99993 6.34062 4 6.446V17.596C4 17.815 4.161 18 4.378 18.03L15.503 19.568C15.565 19.5766 15.628 19.5718 15.688 19.5539C15.7479 19.536 15.8033 19.5054 15.8504 19.4643C15.8976 19.4232 15.9353 19.3724 15.9611 19.3154C15.9869 19.2584 16.0002 19.1966 16 19.134V4.868C16.0002 4.80525 15.9869 4.7432 15.961 4.68606C15.9351 4.62891 15.8971 4.57802 15.8498 4.53685C15.8024 4.49567 15.7468 4.46517 15.6866 4.44742C15.6264 4.42968 15.5631 4.4251 15.501 4.434L4.376 6.014V6.013ZM17 7V17H19.5C19.6326 17 19.7598 16.9473 19.8536 16.8536C19.9473 16.7598 20 16.6326 20 16.5V7.5C20 7.36739 19.9473 7.24021 19.8536 7.14645C19.7598 7.05268 19.6326 7 19.5 7H17ZM7.854 8.454H10.794C12.244 8.454 13.235 9.426 13.235 10.891C13.235 12.341 12.205 13.312 10.721 13.312H9.329V15.5H7.854V8.454ZM9.33 9.665V12.116H10.4C11.244 12.116 11.737 11.686 11.737 10.896C11.737 10.095 11.254 9.665 10.404 9.665H9.33Z" fill="#CA5010"/>
</g>
<defs>
<clipPath id="clip0_6524_20486">
<rect width="24" height="24" fill="white"/>
</clipPath>
</defs>
</svg>
