<svg width="24" height="24" viewBox="0 0 24 24" fill="none" xmlns="http://www.w3.org/2000/svg">
<g clip-path="url(#clip0_6524_20495)">
<rect width="24" height="24" fill="white" fill-opacity="0.01"/>
<path fill-rule="evenodd" clip-rule="evenodd" d="M3 0H21C21.7956 0 22.5587 0.31607 23.1213 0.87868C23.6839 1.44129 24 2.20435 24 3V21C24 21.7956 23.6839 22.5587 23.1213 23.1213C22.5587 23.6839 21.7956 24 21 24H3C2.20435 24 1.44129 23.6839 0.87868 23.1213C0.31607 22.5587 0 21.7956 0 21L0 3C0 2.20435 0.31607 1.44129 0.87868 0.87868C1.44129 0.31607 2.20435 0 3 0V0ZM6 14C5.73478 14 5.48043 14.1054 5.29289 14.2929C5.10536 14.4804 5 14.7348 5 15V18C5 18.2652 5.10536 18.5196 5.29289 18.7071C5.48043 18.8946 5.73478 19 6 19C6.26522 19 6.51957 18.8946 6.70711 18.7071C6.89464 18.5196 7 18.2652 7 18V15C7 14.7348 6.89464 14.4804 6.70711 14.2929C6.51957 14.1054 6.26522 14 6 14ZM14 8C13.7348 8 13.4804 8.10536 13.2929 8.29289C13.1054 8.48043 13 8.73478 13 9V18C13 18.2652 13.1054 18.5196 13.2929 18.7071C13.4804 18.8946 13.7348 19 14 19C14.2652 19 14.5196 18.8946 14.7071 18.7071C14.8946 18.5196 15 18.2652 15 18V9C15 8.73478 14.8946 8.48043 14.7071 8.29289C14.5196 8.10536 14.2652 8 14 8ZM10 12C9.73478 12 9.48043 12.1054 9.29289 12.2929C9.10536 12.4804 9 12.7348 9 13V18C9 18.2652 9.10536 18.5196 9.29289 18.7071C9.48043 18.8946 9.73478 19 10 19C10.2652 19 10.5196 18.8946 10.7071 18.7071C10.8946 18.5196 11 18.2652 11 18V13C11 12.7348 10.8946 12.4804 10.7071 12.2929C10.5196 12.1054 10.2652 12 10 12ZM18 5C17.7348 5 17.4804 5.10536 17.2929 5.29289C17.1054 5.48043 17 5.73478 17 6V18C17 18.2652 17.1054 18.5196 17.2929 18.7071C17.4804 18.8946 17.7348 19 18 19C18.2652 19 18.5196 18.8946 18.7071 18.7071C18.8946 18.5196 19 18.2652 19 18V6C19 5.73478 18.8946 5.48043 18.7071 5.29289C18.5196 5.10536 18.2652 5 18 5Z" fill="#6554C0"/>
</g>
<defs>
<clipPath id="clip0_6524_20495">
<rect width="24" height="24" fill="white"/>
</clipPath>
</defs>
</svg>
