<svg width="24" height="24" viewBox="0 0 24 24" fill="none" xmlns="http://www.w3.org/2000/svg">
<path d="M21 11C21 10.45 20.55 10 20 10H19V7.00001L16.71 4.71001C16.32 4.32001 15.69 4.32001 15.3 4.71001L14 6.00001L12.71 4.71001C12.32 4.32001 11.69 4.32001 11.3 4.71001L10 6.00001L8.71 4.71001C8.32 4.32001 7.69 4.32001 7.3 4.71001L5 7.00001V10H4C3.45 10 3 10.45 3 11C3 11.55 3.45 12 4 12H5V14H4C3.45 14 3 14.45 3 15C3 15.55 3.45 16 4 16H5V19C5 19.55 5.45 20 6 20H18C18.55 20 19 19.55 19 19V16H20C20.55 16 21 15.55 21 15C21 14.45 20.55 14 20 14H19V12H20C20.55 12 21 11.55 21 11ZM16 6.83001L17 7.83001V10H15V7.83001L15.41 7.42001L16 6.83001ZM12 6.83001L12.59 7.42001L13 7.83001V10H11V7.83001L11.41 7.42001L12 6.83001ZM11 14V12H13V14H11ZM13 16V18H11V16H13ZM7 7.83001L8 6.83001L8.59 7.42001L9 7.83001V10H7V7.83001ZM7 12H9V14H7V12ZM7 16H9V18H7V16ZM17 18H15V16H17V18ZM17 14H15V12H17V14Z" fill="black"/>
</svg>
