<svg width="24" height="24" viewBox="0 0 24 24" fill="none" xmlns="http://www.w3.org/2000/svg">
<path d="M19 9.29997V4.99997C19 4.44997 18.55 3.99997 18 3.99997H17C16.45 3.99997 16 4.44997 16 4.99997V6.59997L12.67 3.59997C12.29 3.25997 11.71 3.25997 11.33 3.59997L2.97 11.13C2.63 11.43 2.84 12 3.3 12H5V19C5 19.55 5.45 20 6 20H9C9.55 20 10 19.55 10 19V14H14V19C14 19.55 14.45 20 15 20H18C18.55 20 19 19.55 19 19V12H20.7C21.16 12 21.38 11.43 21.03 11.13L19 9.29997ZM10 9.99997C10 8.89997 10.9 7.99997 12 7.99997C13.1 7.99997 14 8.89997 14 9.99997H10Z" fill="black"/>
</svg>
