<svg width="24" height="24" viewBox="0 0 24 24" fill="none" xmlns="http://www.w3.org/2000/svg">
<path d="M10.94 8.12002L7.47997 4.66002L8.39997 3.65002C8.77997 3.24002 9.31997 3.00002 9.87997 3.00002H14.12C14.68 3.00002 15.22 3.24002 15.59 3.65002L16.83 5.00002H20C21.1 5.00002 22 5.90002 22 7.00002V19C22 19.05 21.99 19.1 21.98 19.16L16.88 14.06C16.96 13.71 17 13.36 17 13C17 10.24 14.76 8.00002 12 8.00002C11.64 8.00002 11.29 8.04002 10.94 8.12002ZM19.78 22.61L18.17 21H3.99997C2.89997 21 1.99997 20.1 1.99997 19V7.00002C1.99997 6.41002 2.26997 5.88002 2.67997 5.51002L1.38997 4.22002C0.999973 3.83002 0.999973 3.20002 1.38997 2.81002C1.77997 2.42002 2.40997 2.42002 2.79997 2.81002L21.18 21.19C21.57 21.58 21.57 22.21 21.18 22.6C20.8 23 20.17 23 19.78 22.61ZM14.49 17.32L12.99 15.82C12.67 15.92 12.35 16 12 16C10.34 16 8.99997 14.66 8.99997 13C8.99997 12.65 9.07997 12.33 9.18997 12.02L7.68997 10.52C7.24997 11.24 6.99997 12.09 6.99997 13C6.99997 15.76 9.23997 18 12 18C12.91 18 13.76 17.75 14.49 17.32Z" fill="black"/>
</svg>
