<svg width="24" height="24" viewBox="0 0 24 24" fill="none" xmlns="http://www.w3.org/2000/svg">
<path d="M22 12C22 6.52003 17.6 2.07003 12.14 2.00003C8.52002 1.95003 5.29002 4.03003 3.43002 7.14003C0.100017 12.69 2.98002 18.27 8.00002 20.25V20.5C8.00002 21.33 8.67002 22 9.50002 22H14.5C15.33 22 16 21.33 16 20.5V20.25C19.53 18.86 22 15.69 22 12ZM20 12H16V5.08003C18.39 6.47003 20 9.05003 20 12ZM14 4.26003V12H10V4.26003C10.64 4.10003 11.31 4.00003 12 4.00003C12.69 4.00003 13.36 4.10003 14 4.26003ZM4.00002 12C4.00002 9.05003 5.61002 6.47003 8.00002 5.08003V12H4.00002Z" fill="black"/>
</svg>
