<svg width="24" height="24" viewBox="0 0 24 24" fill="none" xmlns="http://www.w3.org/2000/svg">
<path d="M1.94 11.79C1.34 12.35 1 13.14 1 13.97V20C1 21.66 2.34 23 4 23H17.68C18.33 23 18.93 22.53 19 21.88C19.08 21.13 18.49 20.5 17.76 20.5H12.5C12.22 20.5 12 20.28 12 20C12 19.72 12.22 19.5 12.5 19.5H19.68C20.33 19.5 20.93 19.03 21 18.38C21.08 17.63 20.49 17 19.76 17H12.5C12.22 17 12 16.78 12 16.5C12 16.22 12.22 16 12.5 16H20.68C21.33 16 21.93 15.53 22 14.88C22.08 14.13 21.49 13.5 20.76 13.5H12.5C12.22 13.5 12 13.28 12 13C12 12.72 12.22 12.5 12.5 12.5H18.68C19.33 12.5 19.93 12.03 20 11.38C20.08 10.63 19.49 10 18.76 10H8.86L10.35 7.39002C10.44 7.23002 10.49 7.06002 10.49 6.86002C10.49 6.60002 10.4 6.36002 10.23 6.16002L9.81 5.71002C9.43 5.32002 8.8 5.30002 8.4 5.68002L1.94 11.79ZM18.5 8.00002C19.88 8.00002 21 6.88002 21 5.50002C21 4.25002 19.59 2.34002 18.89 1.46002C18.69 1.21002 18.32 1.21002 18.12 1.46002C17.41 2.34002 16 4.25002 16 5.50002C16 6.88002 17.12 8.00002 18.5 8.00002ZM13.5 9.00002C14.33 9.00002 15 8.33002 15 7.50002C15 6.94002 14.33 6.01002 13.89 5.46002C13.69 5.21002 13.31 5.21002 13.12 5.46002C12.67 6.01002 12 6.94002 12 7.50002C12 8.33002 12.67 9.00002 13.5 9.00002Z" fill="black"/>
</svg>
