<svg width="99" height="90" viewBox="0 0 99 90" fill="none" xmlns="http://www.w3.org/2000/svg">
<path d="M75.0856 17.5433L53.5581 12.1153C45.7496 10.1464 39.978 13.3024 37.8789 20.6746L30.7692 45.6433C28.6356 53.1363 31.9845 58.4884 39.793 60.4573L61.3205 65.8854C69.2549 67.886 74.8705 64.7942 77.0041 57.3012L84.1137 32.3325C86.2129 24.9604 83.02 19.5439 75.0856 17.5433Z" fill="url(#paint0_linear_6166_119302)"/>
<g opacity="0.5" filter="url(#filter0_d_6166_119302)">
<path d="M69.4595 24.3807L54.7926 20.6825C49.4725 19.3411 45.5403 21.4914 44.1101 26.5141L39.2662 43.5255C37.8126 48.6306 40.0942 52.277 45.4143 53.6184L60.0812 57.3166C65.487 58.6797 69.3129 56.5732 70.7665 51.4681L75.6104 34.4567C77.0406 29.434 74.8653 25.7437 69.4595 24.3807Z" fill="#39B93A" fill-opacity="0.04"/>
</g>
<mask id="path-3-outside-1_6166_119302" maskUnits="userSpaceOnUse" x="8.5" y="21.2119" width="58" height="58" fill="black">
<rect fill="white" x="8.5" y="21.2119" width="58" height="58"/>
<path d="M49.652 22.2119H25.376C15.884 22.2119 9.5 28.8759 9.5 38.7879V61.6639C9.5 71.5479 15.884 78.2119 25.376 78.2119H49.652C59.144 78.2119 65.5 71.5479 65.5 61.6639V38.7879C65.5 28.8759 59.144 22.2119 49.652 22.2119Z"/>
</mask>
<path d="M49.652 22.2119H25.376C15.884 22.2119 9.5 28.8759 9.5 38.7879V61.6639C9.5 71.5479 15.884 78.2119 25.376 78.2119H49.652C59.144 78.2119 65.5 71.5479 65.5 61.6639V38.7879C65.5 28.8759 59.144 22.2119 49.652 22.2119Z" fill="#72DC60" fill-opacity="0.9"/>
<path d="M49.652 23.2119C50.2043 23.2119 50.652 22.7642 50.652 22.2119C50.652 21.6596 50.2043 21.2119 49.652 21.2119V23.2119ZM49.652 21.2119C49.0997 21.2119 48.652 21.6596 48.652 22.2119C48.652 22.7642 49.0997 23.2119 49.652 23.2119V21.2119ZM49.652 21.2119H25.376V23.2119H49.652V21.2119ZM25.376 21.2119C20.3872 21.2119 16.1472 22.9687 13.1563 26.0912C10.1691 29.21 8.5 33.6151 8.5 38.7879H10.5C10.5 34.0487 12.0229 30.1658 14.6007 27.4746C17.1748 24.7872 20.8728 23.2119 25.376 23.2119V21.2119ZM8.5 38.7879V61.6639H10.5V38.7879H8.5ZM8.5 61.6639C8.5 66.8234 10.1695 71.2216 13.1567 74.3366C16.1475 77.4552 20.3873 79.2119 25.376 79.2119V77.2119C20.8727 77.2119 17.1745 75.6366 14.6003 72.9523C12.0225 70.2643 10.5 66.3884 10.5 61.6639H8.5ZM25.376 79.2119H49.652V77.2119H25.376V79.2119ZM49.652 79.2119C54.6409 79.2119 58.8742 77.455 61.8581 74.3357C64.8383 71.2202 66.5 66.8222 66.5 61.6639H64.5C64.5 66.3896 62.9837 70.2656 60.4129 72.9532C57.8458 75.6368 54.1551 77.2119 49.652 77.2119V79.2119ZM66.5 61.6639V38.7879H64.5V61.6639H66.5ZM66.5 38.7879C66.5 33.6164 64.8387 29.2113 61.8585 26.0921C58.8745 22.9688 54.641 21.2119 49.652 21.2119V23.2119C54.155 23.2119 57.8455 24.787 60.4125 27.4737C62.9833 30.1645 64.5 34.0475 64.5 38.7879H66.5Z" fill="url(#paint1_linear_6166_119302)" mask="url(#path-3-outside-1_6166_119302)"/>
<g filter="url(#filter1_d_6166_119302)">
<mask id="path-5-inside-2_6166_119302" fill="white">
<path d="M34.1778 59.3062C33.5506 59.3062 32.9234 59.0682 32.4446 58.5894L25.8002 51.945C24.8426 50.9874 24.8426 49.4362 25.8002 48.4814C26.7578 47.5238 28.3062 47.521 29.2638 48.4786L34.1778 53.3926L45.7362 41.8342C46.6938 40.8766 48.2422 40.8766 49.1998 41.8342C50.1574 42.7918 50.1574 44.343 49.1998 45.3006L35.911 58.5894C35.4322 59.0682 34.805 59.3062 34.1778 59.3062Z"/>
</mask>
<path d="M34.1778 59.3062C33.5506 59.3062 32.9234 59.0682 32.4446 58.5894L25.8002 51.945C24.8426 50.9874 24.8426 49.4362 25.8002 48.4814C26.7578 47.5238 28.3062 47.521 29.2638 48.4786L34.1778 53.3926L45.7362 41.8342C46.6938 40.8766 48.2422 40.8766 49.1998 41.8342C50.1574 42.7918 50.1574 44.343 49.1998 45.3006L35.911 58.5894C35.4322 59.0682 34.805 59.3062 34.1778 59.3062Z" fill="url(#paint2_linear_6166_119302)"/>
<path d="M25.8002 48.4814L25.9414 48.623L25.9417 48.6228L25.8002 48.4814ZM34.1778 53.3926L34.0364 53.534L34.1778 53.6754L34.3193 53.534L34.1778 53.3926ZM49.1998 45.3006L49.0584 45.1591L49.1998 45.3006ZM35.911 58.5894L36.0525 58.7308L35.911 58.5894ZM34.1778 59.1062C33.6013 59.1062 33.0257 58.8876 32.5861 58.4479L32.3032 58.7308C32.8212 59.2488 33.5 59.5062 34.1778 59.5062V59.1062ZM32.5861 58.4479L25.9417 51.8035L25.6588 52.0864L32.3032 58.7308L32.5861 58.4479ZM25.9417 51.8035C25.062 50.9239 25.0623 49.4995 25.9414 48.623L25.659 48.3397C24.6229 49.3728 24.6232 51.0508 25.6588 52.0864L25.9417 51.8035ZM25.9417 48.6228C26.8214 47.743 28.2432 47.7408 29.1224 48.62L29.4053 48.3371C28.3693 47.3011 26.6942 47.3045 25.6588 48.3399L25.9417 48.6228ZM29.1224 48.62L34.0364 53.534L34.3193 53.2511L29.4053 48.3371L29.1224 48.62ZM34.3193 53.534L45.8777 41.9756L45.5948 41.6927L34.0364 53.2511L34.3193 53.534ZM45.8777 41.9756C46.7572 41.0961 48.1789 41.0961 49.0584 41.9756L49.3413 41.6927C48.3056 40.657 46.6305 40.657 45.5948 41.6927L45.8777 41.9756ZM49.0584 41.9756C49.9379 42.8551 49.9379 44.2797 49.0584 45.1591L49.3413 45.442C50.377 44.4063 50.377 42.7285 49.3413 41.6927L49.0584 41.9756ZM49.0584 45.1591L35.7696 58.4479L36.0525 58.7308L49.3413 45.442L49.0584 45.1591ZM35.7696 58.4479C35.33 58.8876 34.7544 59.1062 34.1778 59.1062V59.5062C34.8557 59.5062 35.5345 59.2488 36.0525 58.7308L35.7696 58.4479Z" fill="url(#paint3_linear_6166_119302)" fill-opacity="0.5" mask="url(#path-5-inside-2_6166_119302)"/>
</g>
<defs>
<filter id="filter0_d_6166_119302" x="26.8359" y="11.2915" width="71.2031" height="71.4304" filterUnits="userSpaceOnUse" color-interpolation-filters="sRGB">
<feFlood flood-opacity="0" result="BackgroundImageFix"/>
<feColorMatrix in="SourceAlpha" type="matrix" values="0 0 0 0 0 0 0 0 0 0 0 0 0 0 0 0 0 0 127 0" result="hardAlpha"/>
<feOffset dx="5" dy="8"/>
<feGaussianBlur stdDeviation="8.5"/>
<feColorMatrix type="matrix" values="0 0 0 0 0.223529 0 0 0 0 0.72549 0 0 0 0 0.227451 0 0 0 0.25 0"/>
<feBlend mode="normal" in2="BackgroundImageFix" result="effect1_dropShadow_6166_119302"/>
<feBlend mode="normal" in="SourceGraphic" in2="effect1_dropShadow_6166_119302" result="shape"/>
</filter>
<filter id="filter1_d_6166_119302" x="20.082" y="36.116" width="44.8359" height="38.1902" filterUnits="userSpaceOnUse" color-interpolation-filters="sRGB">
<feFlood flood-opacity="0" result="BackgroundImageFix"/>
<feColorMatrix in="SourceAlpha" type="matrix" values="0 0 0 0 0 0 0 0 0 0 0 0 0 0 0 0 0 0 127 0" result="hardAlpha"/>
<feOffset dx="5" dy="5"/>
<feGaussianBlur stdDeviation="5"/>
<feColorMatrix type="matrix" values="0 0 0 0 0.454902 0 0 0 0 0.870588 0 0 0 0 0.376471 0 0 0 0.5 0"/>
<feBlend mode="normal" in2="BackgroundImageFix" result="effect1_dropShadow_6166_119302"/>
<feBlend mode="normal" in="SourceGraphic" in2="effect1_dropShadow_6166_119302" result="shape"/>
</filter>
<linearGradient id="paint0_linear_6166_119302" x1="87.438" y1="20.6579" x2="42.0885" y2="50.1527" gradientUnits="userSpaceOnUse">
<stop stop-color="#9BF763"/>
<stop offset="1" stop-color="#26AB5B"/>
</linearGradient>
<linearGradient id="paint1_linear_6166_119302" x1="18.4143" y1="28.736" x2="54.1363" y2="72.9786" gradientUnits="userSpaceOnUse">
<stop stop-color="white" stop-opacity="0.25"/>
<stop offset="1" stop-color="white" stop-opacity="0"/>
</linearGradient>
<linearGradient id="paint2_linear_6166_119302" x1="48.1572" y1="44.4008" x2="20.5176" y2="45.6312" gradientUnits="userSpaceOnUse">
<stop stop-color="white"/>
<stop offset="1" stop-color="white" stop-opacity="0.2"/>
</linearGradient>
<linearGradient id="paint3_linear_6166_119302" x1="27.7574" y1="47.2179" x2="48.8461" y2="47.3768" gradientUnits="userSpaceOnUse">
<stop stop-color="white"/>
<stop offset="1" stop-color="white" stop-opacity="0"/>
</linearGradient>
</defs>
</svg>
