<svg width="24" height="24" viewBox="0 0 24 24" fill="none" xmlns="http://www.w3.org/2000/svg">
<path d="M12.7477 2.58594C12.7477 2.26234 12.4854 2 12.1618 2H4.40805C4.08446 2 3.82211 2.26234 3.82211 2.58594V5.84113H12.7477V2.58594Z" fill="black"/>
<path d="M3.17226 21.414C3.17226 21.7376 3.4346 21.9999 3.75819 21.9999C4.08179 21.9999 4.34413 21.7376 4.34413 21.414V13.1718H3.17226V21.414V21.414Z" fill="black"/>
<path d="M21.6094 9.65603H9.45676V8.18481H12.1617C12.4853 8.18481 12.7477 7.92247 12.7477 7.59888V7.01294H3.82211V7.59888C3.82211 7.92247 4.08445 8.18481 4.40805 8.18481H7.11301V9.65603H2.39062C2.17488 9.65603 2 9.83091 2 10.0467V11.6092C2 11.8249 2.17488 11.9998 2.39062 11.9998H21.6094C21.8251 11.9998 22 11.8249 22 11.6092V10.0467C22 9.83095 21.8251 9.65603 21.6094 9.65603Z" fill="black"/>
<path d="M13.7966 16.9997H20.8279V13.1714H13.7966V16.9997ZM17.0193 14.4996H17.6052C17.9288 14.4996 18.1911 14.7619 18.1911 15.0855C18.1911 15.4091 17.9288 15.6715 17.6052 15.6715H17.0193C16.6957 15.6715 16.4333 15.4091 16.4333 15.0855C16.4333 14.7619 16.6957 14.4996 17.0193 14.4996Z" fill="black"/>
<path d="M13.7966 21.4141C13.7966 21.7377 14.059 22 14.3826 22H20.2419C20.5655 22 20.8279 21.7377 20.8279 21.4141V18.1716H13.7966V21.4141ZM17.0193 19.4998H17.6052C17.9288 19.4998 18.1911 19.7622 18.1911 20.0858C18.1911 20.4094 17.9288 20.6717 17.6052 20.6717H17.0193C16.6957 20.6717 16.4333 20.4094 16.4333 20.0858C16.4333 19.7622 16.6957 19.4998 17.0193 19.4998Z" fill="black"/>
</svg>
