<svg width="24" height="24" viewBox="0 0 24 24" fill="none" xmlns="http://www.w3.org/2000/svg">
<path d="M19 7.99998V11H5.83001L8.71001 8.11998C9.10001 7.72998 9.10001 7.09998 8.71001 6.70998C8.32001 6.31998 7.69001 6.31998 7.30001 6.70998L2.71001 11.3C2.32001 11.69 2.32001 12.32 2.71001 12.71L7.30001 17.3C7.69001 17.69 8.32001 17.69 8.71001 17.3C9.10001 16.91 9.10001 16.28 8.71001 15.89L5.83001 13H20C20.55 13 21 12.55 21 12V7.99998C21 7.44998 20.55 6.99998 20 6.99998C19.45 6.99998 19 7.44998 19 7.99998Z" fill="black"/>
</svg>
