<svg width="24" height="24" viewBox="0 0 24 24" fill="none" xmlns="http://www.w3.org/2000/svg">
<path d="M5.35 5.64C4.45 5 4.23 3.76 4.86 2.85C5.49 1.95 6.74 1.73 7.65 2.36C8.55 3 8.77 4.24 8.14 5.15C7.5 6.05 6.26 6.27 5.35 5.64V5.64ZM16 20C16 19.45 15.55 19 15 19H8.93C7.45 19 6.19 17.92 5.97 16.46L4.16 7.78C4.07 7.33 3.67 7 3.2 7C2.58 7 2.12 7.57 2.24 8.18L3.99 16.76C4.37 19.2 6.47 21 8.94 21H15C15.55 21 16 20.55 16 20ZM15.54 15H11.35L10.32 10.9C11.6 11.62 12.95 12.18 14.42 12.2C15 12.21 15.47 11.71 15.47 11.13C15.47 10.54 14.98 10.09 14.39 10.07C13.08 10.03 11.76 9.51 10.78 8.74L9.14 7.47C8.91 7.29 8.65 7.17 8.38 7.09C8.06 7 7.72 6.97 7.39 7.03H7.37C6.14 7.25 5.32 8.42 5.53 9.64L6.88 15.56C7.16 16.98 8.39 18 9.83 18H16.68L19.77 20.42C20.19 20.75 20.79 20.71 21.16 20.34C21.61 19.89 21.56 19.16 21.06 18.77L16.77 15.42C16.42 15.15 15.99 15 15.54 15V15Z" fill="black"/>
</svg>
