<svg width="24" height="24" viewBox="0 0 24 24" fill="none" xmlns="http://www.w3.org/2000/svg">
<path d="M22.25 14.29L21.56 16.18L9.2 11.71L10.59 7.92C10.97 6.89 12.11 6.36 13.15 6.73L19.84 9.14C21.94 9.9 23.02 12.2 22.25 14.29V14.29ZM2.45 12.48L8 14.48V18C8 18.55 8.45 19 9 19H15C15.55 19 16 18.55 16 18V17.37L19.58 18.66C20.1 18.85 20.68 18.58 20.87 18.06C21.06 17.54 20.79 16.96 20.27 16.77L3.13 10.59C2.61 10.4 2.03 10.67 1.84 11.19C1.66 11.71 1.93 12.29 2.45 12.48V12.48ZM7.3 10.2C8.79 9.48 9.42 7.69 8.71 6.2C7.99 4.71 6.2 4.08 4.7 4.8C3.21 5.51 2.58 7.3 3.3 8.8C4.01 10.29 5.8 10.92 7.3 10.2V10.2Z" fill="black"/>
</svg>
