<svg width="24" height="24" viewBox="0 0 24 24" fill="none" xmlns="http://www.w3.org/2000/svg">
<path d="M21.71 11.29L12.71 2.29C12.32 1.9 11.69 1.9 11.3 2.29L8.21002 5.38L13 10.17V7.5L16.15 10.65C16.35 10.85 16.35 11.16 16.15 11.36L15.17 12.34L18.62 15.79L21.71 12.7C22.09 12.32 22.09 11.69 21.71 11.29Z" fill="black"/>
<path d="M6.79 6.79L3.51 3.51C3.12 3.12 2.49 3.12 2.1 3.51C1.71 3.9 1.71 4.53 2.1 4.92L5.38 8.2L2.29 11.29C1.9 11.68 1.9 12.31 2.29 12.7L11.29 21.7C11.68 22.09 12.31 22.09 12.7 21.7L15.79 18.61L19.07 21.89C19.46 22.28 20.09 22.28 20.48 21.89C20.87 21.5 20.87 20.87 20.48 20.48L6.79 6.79ZM9.99 14C9.99 14.55 9.54 15 8.99 15C8.43999 15 7.99 14.55 7.99 14V11C7.99 10.95 8.01 10.9 8.02 10.85L9.99 12.82V14Z" fill="black"/>
</svg>
