<svg width="24" height="24" viewBox="0 0 24 24" fill="none" xmlns="http://www.w3.org/2000/svg">
<path d="M10.5 17.15L14.48 14.87C15.15 14.49 15.15 13.52 14.48 13.13L10.5 10.85C9.83 10.47 9 10.96 9 11.72V16.27C9 17.04 9.83 17.53 10.5 17.15ZM21 6H13.41L16.35 3.06C16.55 2.86 16.55 2.55 16.35 2.35C16.15 2.15 15.84 2.15 15.64 2.35L12 5.99L8.36 2.35C8.16 2.15 7.85 2.15 7.65 2.35C7.45 2.55 7.45 2.86 7.65 3.06L10.59 6H3C1.9 6 1 6.89 1 8V20C1 21.1 1.9 22 3 22H21C22.1 22 23 21.1 23 20V8C23 6.89 22.1 6 21 6ZM20 20H4C3.45 20 3 19.55 3 19V9C3 8.45 3.45 8 4 8H20C20.55 8 21 8.45 21 9V19C21 19.55 20.55 20 20 20Z" fill="black"/>
</svg>
