<svg width="24" height="24" viewBox="0 0 24 24" fill="none" xmlns="http://www.w3.org/2000/svg">
<path d="M15.9 5C15.73 5 15.58 5.09 15.49 5.23L15.42 5.38L10.24 17.03C10.08 17.32 9.97999 17.64 9.97999 17.99C9.97999 19.1 10.88 20 11.99 20C12.95 20 13.76 19.32 13.95 18.41L13.96 18.38L16.4 5.5C16.4 5.22 16.18 5 15.9 5V5ZM2.05999 10.06C2.56999 10.57 3.38999 10.61 3.94999 10.15C6.70999 7.89 10.19 6.97 13.53 7.39L14.72 4.71C10.37 3.93 5.75999 5.01 2.14999 7.96C1.50999 8.49 1.46999 9.47 2.05999 10.06V10.06ZM21.94 10.06C22.53 9.47 22.49 8.49 21.84 7.96C20.48 6.85 18.98 6.01 17.4 5.43L16.87 8.25C18 8.72 19.06 9.34 20.04 10.14C20.62 10.6 21.43 10.57 21.94 10.06V10.06ZM17.91 14.09C18.51 13.49 18.47 12.46 17.77 11.97C17.31 11.64 16.83 11.36 16.33 11.11L15.78 14.03C15.89 14.1 16 14.17 16.1 14.25C16.67 14.65 17.43 14.57 17.91 14.09V14.09ZM6.07999 14.08C6.57999 14.58 7.34999 14.62 7.92999 14.21C8.86999 13.55 9.93999 13.15 11.03 12.99L12.31 10.11C10.18 10.05 8.02999 10.65 6.21999 11.95C5.52999 12.46 5.47999 13.48 6.07999 14.08V14.08Z" fill="black"/>
</svg>
