<svg width="24" height="24" viewBox="0 0 24 24" fill="none" xmlns="http://www.w3.org/2000/svg">
<path d="M12.88 5.04999C16.06 5.44999 18.55 7.93999 18.95 11.12C19.01 11.63 19.44 12 19.94 12C19.98 12 20.02 12 20.06 11.99C20.61 11.92 21 11.42 20.93 10.87C20.42 6.77999 17.21 3.56999 13.12 3.05999C12.57 2.99999 12.07 3.38999 12.01 3.93999C11.94 4.48999 12.33 4.98999 12.88 5.04999V5.04999ZM13.26 7.15999C12.73 7.01999 12.18 7.33999 12.04 7.87999C11.9 8.41999 12.22 8.95999 12.76 9.09999C13.81 9.36999 14.63 10.19 14.91 11.25C15.03 11.7 15.43 12 15.88 12C15.96 12 16.05 11.99 16.13 11.97C16.66 11.83 16.98 11.28 16.85 10.75C16.38 8.97999 15.01 7.60999 13.26 7.15999ZM19.23 15.26L16.69 14.97C16.08 14.9 15.48 15.11 15.05 15.54L13.21 17.38C10.38 15.94 8.05999 13.63 6.61999 10.79L8.47 8.93999C8.9 8.50999 9.10999 7.90999 9.03999 7.29999L8.74999 4.77999C8.62999 3.76999 7.78 3.00999 6.76 3.00999H5.03C3.9 3.00999 2.95999 3.94999 3.02999 5.07999C3.55999 13.62 10.39 20.44 18.92 20.97C20.05 21.04 20.99 20.1 20.99 18.97V17.24C21 16.23 20.24 15.38 19.23 15.26V15.26Z" fill="black"/>
</svg>
