<svg width="24" height="24" viewBox="0 0 24 24" fill="none" xmlns="http://www.w3.org/2000/svg">
<path d="M19.23 15.26L16.69 14.97C16.08 14.9 15.48 15.11 15.05 15.54L13.21 17.38C10.38 15.94 8.06 13.63 6.62 10.79L8.47 8.94C8.9 8.51 9.11 7.91 9.04 7.3L8.75 4.78C8.63 3.77 7.78 3.01 6.76 3.01H5.03C3.9 3.01 2.96 3.95 3.03 5.08C3.56 13.62 10.39 20.44 18.92 20.97C20.05 21.04 20.99 20.1 20.99 18.97V17.24C21 16.23 20.24 15.38 19.23 15.26V15.26ZM13 11H17C17.55 11 18 10.55 18 10C18 9.45 17.55 9 17 9H15.41L19.72 4.69C20.11 4.3 20.11 3.67 19.72 3.28C19.33 2.89 18.7 2.89 18.31 3.28L14 7.59V6C14 5.45 13.55 5 13 5C12.45 5 12 5.45 12 6V10C12 10.55 12.45 11 13 11Z" fill="black"/>
</svg>
