<svg width="24" height="24" viewBox="0 0 24 24" fill="none" xmlns="http://www.w3.org/2000/svg">
<g clip-path="url(#clip0_79_15593)">
<path d="M22 3H6.99999C6.30999 3 5.76999 3.35 5.40999 3.88L0.369987 11.45C0.149987 11.79 0.149987 12.22 0.369987 12.56L5.40999 20.12C5.76999 20.64 6.30999 21 6.99999 21H22C23.1 21 24 20.1 24 19V5C24 3.9 23.1 3 22 3ZM18.3 16.3C17.91 16.69 17.28 16.69 16.89 16.3L14 13.41L11.11 16.3C10.72 16.69 10.09 16.69 9.69999 16.3C9.30999 15.91 9.30999 15.28 9.69999 14.89L12.59 12L9.69999 9.11C9.30999 8.72 9.30999 8.09 9.69999 7.7C10.09 7.31 10.72 7.31 11.11 7.7L14 10.59L16.89 7.7C17.28 7.31 17.91 7.31 18.3 7.7C18.69 8.09 18.69 8.72 18.3 9.11L15.41 12L18.3 14.89C18.68 15.27 18.68 15.91 18.3 16.3Z" fill="black"/>
</g>
<defs>
<clipPath id="clip0_79_15593">
<rect width="24" height="24" fill="white"/>
</clipPath>
</defs>
</svg>
