<svg width="24" height="24" viewBox="0 0 24 24" fill="none" xmlns="http://www.w3.org/2000/svg">
<path d="M7 18.9999C5.9 18.9999 5 19.8999 5 20.9999H19C19 19.8999 18.1 18.9999 17 18.9999H13V16.9999H16C17.1 16.9999 18 16.0999 18 14.9999H10C8.34 14.9999 7 13.6599 7 11.9999C7 10.9099 7.59 9.95988 8.46 9.43988C8.17 9.02988 8 8.53988 8 7.99988C8 7.78988 8.04 7.57988 8.09 7.37988C6.28 8.12988 5 9.91988 5 11.9999C5 14.7599 7.24 16.9999 10 16.9999V18.9999H7Z" fill="black"/>
<path d="M10.56 5.50991C11.91 5.53991 13 6.63991 13 7.99991C13 8.74991 12.67 9.40991 12.15 9.86991L12.4 10.5499C12.59 11.0699 13.16 11.3399 13.68 11.1499C13.87 11.6699 14.44 11.9399 14.96 11.7499C15.48 11.5599 15.75 10.9899 15.56 10.4699C16.08 10.2799 16.35 9.70991 16.16 9.18991L14.1 3.53991C13.91 3.01991 13.34 2.74991 12.82 2.93991C12.63 2.41991 12.06 2.14991 11.54 2.33991C11.02 2.52991 10.75 3.09991 10.94 3.61991C10.42 3.80991 10.15 4.37991 10.34 4.89991L10.56 5.50991Z" fill="black"/>
<path d="M10.5 9.5C11.3284 9.5 12 8.82843 12 8C12 7.17157 11.3284 6.5 10.5 6.5C9.67157 6.5 9 7.17157 9 8C9 8.82843 9.67157 9.5 10.5 9.5Z" fill="black"/>
</svg>
