<svg width="24" height="24" viewBox="0 0 24 24" fill="none" xmlns="http://www.w3.org/2000/svg">
<path d="M21.94 11.2301C21.57 8.76008 19.32 7.00008 16.82 7.00008H13.95C13.43 7.00008 13 7.43008 13 7.95008C13 8.47008 13.43 8.90008 13.95 8.90008H16.85C18.45 8.90008 19.89 10.0401 20.07 11.6301C20.24 13.0601 19.43 14.3201 18.22 14.8501L19.62 16.2501C21.25 15.2301 22.26 13.3401 21.94 11.2301V11.2301ZM4.12001 3.56008C3.73001 3.17008 3.10001 3.17008 2.71001 3.56008C2.32001 3.95008 2.32001 4.58008 2.71001 4.97008L5.11001 7.37008C3.17001 8.17008 1.84001 10.1401 2.02001 12.4101C2.23001 15.0501 4.59001 17.0001 7.23001 17.0001H10.05C10.57 17.0001 11 16.5701 11 16.0501C11 15.5301 10.57 15.1001 10.05 15.1001H7.16001C5.53001 15.1001 4.06001 13.9101 3.91001 12.2801C3.76001 10.5601 5.02001 9.11008 6.66001 8.93008L8.76001 11.0301C8.33001 11.1201 8.00001 11.4901 8.00001 11.9501V12.0501C8.00001 12.5701 8.43001 13.0001 8.95001 13.0001H10.73L13 15.2701V17.0001H14.73L18.03 20.3001C18.42 20.6901 19.05 20.6901 19.44 20.3001C19.83 19.9101 19.83 19.2801 19.44 18.8901L4.12001 3.56008ZM16 11.9501C16 11.4301 15.57 11.0001 15.05 11.0001H14.39L15.88 12.4901C15.95 12.3601 16 12.2101 16 12.0501V11.9501V11.9501Z" fill="black"/>
</svg>
