<svg width="24" height="24" viewBox="0 0 24 24" fill="none" xmlns="http://www.w3.org/2000/svg">
<g clip-path="url(#clip0_79_15334)">
<path d="M6.99998 7.56002C6.99998 6.62002 5.85998 6.14002 5.18998 6.81002L0.70998 11.29C0.31998 11.68 0.31998 12.31 0.70998 12.7L5.18998 17.18C5.85998 17.86 6.99998 17.38 6.99998 16.44C6.99998 16.16 6.88998 15.89 6.68998 15.69L2.99998 12L6.68998 8.31002C6.88998 8.11002 6.99998 7.84002 6.99998 7.56002V7.56002ZM13 9.00002V7.41002C13 6.52002 11.92 6.07002 11.29 6.70002L6.69998 11.29C6.30998 11.68 6.30998 12.31 6.69998 12.7L11.29 17.29C11.92 17.92 13 17.47 13 16.58V14.9C18 14.9 21.5 16.5 24 20C23 15 20 10 13 9.00002Z" fill="black"/>
</g>
<defs>
<clipPath id="clip0_79_15334">
<rect width="24" height="24" fill="white"/>
</clipPath>
</defs>
</svg>
