<svg width="24" height="24" viewBox="0 0 24 24" fill="none" xmlns="http://www.w3.org/2000/svg">
<path d="M17.66 17.6599L16.95 18.3699C16.75 18.5699 16.44 18.5699 16.24 18.3699C16.04 18.1699 16.04 17.8599 16.24 17.6599L16.95 16.9499L15.01 15.0099L14.3 15.7199C14.1 15.9199 13.79 15.9199 13.59 15.7199C13.39 15.5199 13.39 15.2099 13.59 15.0099L14.3 14.2999L12.36 12.3599L11.65 13.0699C11.45 13.2699 11.14 13.2699 10.94 13.0699C10.74 12.8699 10.74 12.5599 10.94 12.3599L11.65 11.6499L9.7 9.69994L8.99 10.4099C8.79 10.6099 8.48 10.6099 8.28 10.4099C8.08 10.2099 8.08 9.89994 8.28 9.69994L8.99 8.98994L7.05 7.04994L6.34 7.75994C6.14 7.95994 5.83 7.95994 5.63 7.75994C5.43 7.55994 5.43 7.24994 5.63 7.04994L6.34 6.33994L4.85 4.84994C4.54 4.53994 4 4.75994 4 5.20994V17.9999C4 19.0999 4.9 19.9999 6 19.9999H18.79C19.24 19.9999 19.46 19.4599 19.14 19.1499L17.66 17.6599ZM7 15.9999V11.2399L12.76 16.9999H8C7.45 16.9999 7 16.5499 7 15.9999Z" fill="black"/>
</svg>
