<svg width="24" height="24" viewBox="0 0 24 24" fill="none" xmlns="http://www.w3.org/2000/svg">
<path d="M20 8.69004V5.00004C20 4.45004 19.55 4.00004 19 4.00004H15.31L12.71 1.40004C12.32 1.01004 11.69 1.01004 11.3 1.40004L8.69 4.00004H5C4.45 4.00004 4 4.45004 4 5.00004V8.69004L1.4 11.29C1.01 11.68 1.01 12.31 1.4 12.7L4 15.3V19C4 19.55 4.45 20 5 20H8.69L11.29 22.6C11.68 22.99 12.31 22.99 12.7 22.6L15.3 20H19C19.55 20 20 19.55 20 19V15.31L22.6 12.71C22.99 12.32 22.99 11.69 22.6 11.3L20 8.69004ZM12 18C8.69 18 6 15.31 6 12C6 8.69004 8.69 6.00004 12 6.00004C15.31 6.00004 18 8.69004 18 12C18 15.31 15.31 18 12 18ZM12 8.00004C9.79 8.00004 8 9.79004 8 12C8 14.21 9.79 16 12 16C14.21 16 16 14.21 16 12C16 9.79004 14.21 8.00004 12 8.00004Z" fill="black"/>
</svg>
