<svg width="24" height="24" viewBox="0 0 24 24" fill="none" xmlns="http://www.w3.org/2000/svg">
<path d="M20 15.31L22.6 12.71C22.99 12.32 22.99 11.69 22.6 11.3L20 8.69004V5.00004C20 4.45004 19.55 4.00004 19 4.00004H15.31L12.71 1.40004C12.32 1.01004 11.69 1.01004 11.3 1.40004L8.69 4.00004H5C4.45 4.00004 4 4.45004 4 5.00004V8.69004L1.4 11.29C1.01 11.68 1.01 12.31 1.4 12.7L4 15.3V19C4 19.55 4.45 20 5 20H8.69L11.29 22.6C11.68 22.99 12.31 22.99 12.7 22.6L15.3 20H19C19.55 20 20 19.55 20 19V15.31ZM12 16.9V7.10004C12 6.49004 12.55 5.99004 13.15 6.11004C15.91 6.65004 18 9.08004 18 12C18 14.92 15.91 17.35 13.15 17.89C12.55 18.01 12 17.51 12 16.9Z" fill="black"/>
</svg>
