<svg width="24" height="24" viewBox="0 0 24 24" fill="none" xmlns="http://www.w3.org/2000/svg">
<path d="M8 3.99999V4.88999L10 6.88999V3.99999H14V7.99999H11.11L13.11 9.99999H14V10.89L16 12.89V9.99999H20V14H17.11L19.11 16H20V16.89L22 18.89V3.99999C22 2.89999 21.1 1.99999 20 1.99999H5.11L7.11 3.99999H8ZM16 3.99999H19C19.55 3.99999 20 4.44999 20 4.99999V7.99999H16V3.99999ZM22.16 21.88L2.12 1.83999C1.73 1.44999 1.1 1.44999 0.710003 1.83999C0.320003 2.22999 0.320003 2.85999 0.710003 3.24999L2 4.54999V20C2 21.1 2.9 22 4 22H19.45L20.75 23.3C21.14 23.69 21.77 23.69 22.16 23.3C22.55 22.91 22.55 22.27 22.16 21.88V21.88ZM10 12.55L11.45 14H10V12.55ZM4 6.54999L5.45 7.99999H4V6.54999V6.54999ZM8 20H5C4.45 20 4 19.55 4 19V16H8V20ZM8 14H4V9.99999H7.45L8 10.55V14ZM14 20H10V16H13.45L14 16.55V20ZM16 20V18.55L17.45 20H16Z" fill="black"/>
</svg>
