<svg width="24" height="24" viewBox="0 0 24 24" fill="none" xmlns="http://www.w3.org/2000/svg">
<path d="M18 15.0001V19.0001C18 19.5501 17.55 20.0001 17 20.0001H5C4.45 20.0001 4 19.5501 4 19.0001V7.00006C4 6.45006 4.45 6.00006 5 6.00006H8.02C8.57 6.00006 9.02 5.55006 9.02 5.00006C9.02 4.45006 8.57 4.00006 8.02 4.00006H4C2.9 4.00006 2 4.90006 2 6.00006V20.0001C2 21.1001 2.9 22.0001 4 22.0001H18C19.1 22.0001 20 21.1001 20 20.0001V15.0001C20 14.4501 19.55 14.0001 19 14.0001C18.45 14.0001 18 14.4501 18 15.0001ZM15.5 18.0001H6.52C6.1 18.0001 5.87 17.5201 6.13 17.1901L7.87 14.9601C8.07 14.7101 8.45 14.7001 8.65 14.9501L10.21 16.8301L12.56 13.8101C12.76 13.5501 13.16 13.5501 13.35 13.8201L15.9 17.2101C16.15 17.5301 15.91 18.0001 15.5 18.0001V18.0001ZM19.3 8.89006C19.78 8.12006 20.05 7.22006 19.99 6.23006C19.86 4.08006 18.15 2.26006 16.02 2.03006C13.3 1.73006 11 3.84006 11 6.50006C11 8.99006 13.01 11.0001 15.49 11.0001C16.37 11.0001 17.19 10.7401 17.88 10.3001L20.29 12.7101C20.68 13.1001 21.32 13.1001 21.71 12.7101C22.1 12.3201 22.1 11.6801 21.71 11.2901L19.3 8.89006ZM15.5 9.00006C14.12 9.00006 13 7.88006 13 6.50006C13 5.12006 14.12 4.00006 15.5 4.00006C16.88 4.00006 18 5.12006 18 6.50006C18 7.88006 16.88 9.00006 15.5 9.00006Z" fill="black"/>
</svg>
