<svg width="24" height="24" viewBox="0 0 24 24" fill="none" xmlns="http://www.w3.org/2000/svg">
<path d="M21.19 21.19L20.41 20.41L18 18L13.41 13.41L3.59002 3.58996L2.81002 2.80996C2.42002 2.41996 1.79002 2.41996 1.40002 2.80996C1.00002 3.19996 1.00002 3.82996 1.39002 4.21996L3.00002 5.82996V19C3.00002 20.1 3.90002 21 5.00002 21H18.17L19.78 22.61C20.17 23 20.8 23 21.19 22.61C21.58 22.22 21.58 21.58 21.19 21.19ZM6.02002 18C5.60002 18 5.37002 17.52 5.63002 17.19L8.12002 13.99C8.32002 13.74 8.70002 13.73 8.90002 13.98L11 16.51L12.17 15L15.17 18H6.02002ZM21 18.17L5.83002 2.99996H19C20.1 2.99996 21 3.89996 21 4.99996V18.17Z" fill="black"/>
</svg>
