<svg width="24" height="24" viewBox="0 0 24 24" fill="none" xmlns="http://www.w3.org/2000/svg">
<path d="M12 17C13.6569 17 15 15.6569 15 14C15 12.3431 13.6569 11 12 11C10.3431 11 9 12.3431 9 14C9 15.6569 10.3431 17 12 17Z" fill="black"/>
<path d="M16.6 3.36996C18.7 3.63996 20.37 5.29996 20.63 7.39996C20.67 7.73996 20.95 7.99996 21.29 7.99996C21.68 7.99996 22 7.65996 21.95 7.26996C21.62 4.54996 19.45 2.37996 16.73 2.04996C16.34 1.99996 16 2.31996 16 2.70996C16 3.04996 16.26 3.32996 16.6 3.36996V3.36996ZM19.23 7.18996C18.93 5.99996 18 5.06996 16.81 4.76996C16.4 4.66996 16 4.98996 16 5.41996C16 5.70996 16.19 5.98996 16.48 6.05996C17.2 6.23996 17.77 6.79996 17.94 7.51996C18.01 7.80996 18.28 7.99996 18.58 7.99996C19.01 7.99996 19.33 7.59996 19.23 7.18996V7.18996ZM17 8.99996C17 7.89996 16.1 6.99996 15 6.99996V4.99996C15 4.44996 14.55 3.99996 14 3.99996H9.88C9.32 3.99996 8.78 4.23996 8.4 4.64996L7.17 5.99996H4C2.9 5.99996 2 6.89996 2 7.99996V20C2 21.1 2.9 22 4 22H20C21.1 22 22 21.1 22 20V11C22 9.89996 21.1 8.99996 20 8.99996H17ZM12 19C9.24 19 7 16.76 7 14C7 11.24 9.24 8.99996 12 8.99996C14.76 8.99996 17 11.24 17 14C17 16.76 14.76 19 12 19Z" fill="black"/>
</svg>
