<svg width="24" height="24" viewBox="0 0 24 24" fill="none" xmlns="http://www.w3.org/2000/svg">
<g clip-path="url(#clip0_79_15023)">
<path d="M19.04 3H5.03999C3.93999 3 3.03999 3.9 3.03999 5V19C3.03999 20.1 3.93999 21 5.03999 21H19.04C20.14 21 21.04 20.1 21.04 19V5C21.04 3.9 20.14 3 19.04 3ZM14.04 17C13.49 17 13.04 16.55 13.04 16V13H10.04C9.48999 13 9.03999 12.55 9.03999 12V8C9.03999 7.45 9.48999 7 10.04 7C10.59 7 11.04 7.45 11.04 8V11H13.04V8C13.04 7.45 13.49 7 14.04 7C14.59 7 15.04 7.45 15.04 8V16C15.04 16.55 14.59 17 14.04 17Z" fill="black"/>
</g>
<defs>
<clipPath id="clip0_79_15023">
<rect width="24" height="24" fill="white"/>
</clipPath>
</defs>
</svg>
