<svg width="24" height="24" viewBox="0 0 24 24" fill="none" xmlns="http://www.w3.org/2000/svg">
<path d="M19 3H5.00999C3.90999 3 3.00999 3.9 3.00999 5V19C3.00999 20.1 3.90999 21 5.00999 21H19C20.1 21 21 20.1 21 19V5C21 3.9 20.1 3 19 3ZM15.01 10.5C15.01 11.33 14.34 12 13.51 12C14.34 12 15.01 12.67 15.01 13.5V15C15.01 16.11 14.11 17 13.01 17H9.99999C9.44999 17 8.99999 16.55 8.99999 16C8.99999 15.45 9.44999 15 9.99999 15H13.01L13 13H12C11.45 13 11 12.55 11 12C11 11.45 11.45 11 12 11H13L13.01 9H9.99999C9.44999 9 9.00999 8.55 9.00999 8C9.00999 7.45 9.44999 7 9.99999 7H13.01C14.11 7 15.01 7.9 15.01 9V10.5Z" fill="black"/>
</svg>
