<svg width="24" height="24" viewBox="0 0 24 24" fill="none" xmlns="http://www.w3.org/2000/svg">
<path d="M12 10C8.53 10 5.64 12.54 5.09 15.86C4.99 16.46 5.48 17 6.09 17C6.58 17 6.99 16.64 7.07 16.15C7.48 13.79 9.53 12 12 12C14.47 12 16.52 13.79 16.93 16.15C17.01 16.64 17.42 17 17.91 17C18.52 17 19 16.46 18.9 15.86C18.36 12.54 15.47 10 12 10ZM12 6C6.3 6 1.61 10.34 1.05 15.9C1 16.49 1.46 17 2.06 17C2.57 17 3 16.62 3.05 16.12C3.49 11.57 7.34 8 12 8C16.66 8 20.51 11.57 20.96 16.12C21.01 16.62 21.44 17 21.95 17C22.54 17 23.01 16.49 22.95 15.9C22.39 10.34 17.7 6 12 6Z" fill="black"/>
</svg>
