<svg width="24" height="24" viewBox="0 0 24 24" fill="none" xmlns="http://www.w3.org/2000/svg">
<path d="M21.96 11.05C22.54 17.31 17.32 22.53 11.06 21.95C6.63 21.54 2.94 18.1 2.16 13.72C1.9 12.3 1.97 10.94 2.28 9.67997C2.42 9.09997 3.04 8.77997 3.59 8.97997C4.06 9.14997 4.34 9.64997 4.22 10.14C4.02 10.96 3.95 11.84 4.03 12.75C4.4 16.79 7.92 20 11.98 20.01C16.77 20.02 20.59 15.8 19.92 10.89C19.41 7.18997 16.26 4.26997 12.53 4.02997C11.7 3.96997 10.9 4.04997 10.15 4.22997C9.66 4.33997 9.16 4.06997 8.99 3.58997C8.79 3.02997 9.11 2.41997 9.68 2.27997C11.47 1.84997 13.43 1.86997 15.46 2.64997C19.02 3.99997 21.61 7.26997 21.96 11.05ZM5.5 3.99997C4.67 3.99997 4 4.66997 4 5.49997C4 6.32997 4.67 6.99997 5.5 6.99997C6.33 6.99997 7 6.32997 7 5.49997C7 4.66997 6.33 3.99997 5.5 3.99997ZM11 15V8.99997C11 8.44997 10.55 7.99997 10 7.99997C9.45 7.99997 9 8.44997 9 8.99997V15C9 15.55 9.45 16 10 16C10.55 16 11 15.55 11 15ZM15 15V8.99997C15 8.44997 14.55 7.99997 14 7.99997C13.45 7.99997 13 8.44997 13 8.99997V15C13 15.55 13.45 16 14 16C14.55 16 15 15.55 15 15Z" fill="black"/>
</svg>
