<svg width="24" height="24" viewBox="0 0 24 24" fill="none" xmlns="http://www.w3.org/2000/svg">
<path d="M6.55999 7.98002C6.09999 7.52002 5.30999 7.60002 4.99999 8.17002C4.71999 8.68002 4.49999 9.20002 4.32999 9.75002C4.13999 10.38 4.63999 11 5.28999 11H5.29999C5.72999 11 6.11999 10.72 6.23999 10.3C6.35999 9.90002 6.51999 9.51002 6.71999 9.13002C6.93999 8.76002 6.86999 8.29002 6.55999 7.98002V7.98002ZM5.30999 13H5.28999C4.63999 13 4.13999 13.62 4.32999 14.25C4.48999 14.79 4.70999 15.32 4.98999 15.83C5.29999 16.4 6.09999 16.49 6.55999 16.03C6.85999 15.72 6.93999 15.26 6.72999 14.88C6.52999 14.51 6.36999 14.12 6.24999 13.72C6.12999 13.28 5.73999 13 5.30999 13V13ZM8.15999 19.02C8.66999 19.3 9.19999 19.52 9.74999 19.68C10.37 19.86 10.99 19.36 10.99 18.72V18.69C10.99 18.26 10.71 17.87 10.29 17.75C9.88999 17.63 9.50999 17.47 9.13999 17.27C8.75999 17.06 8.27999 17.13 7.97999 17.44L7.94999 17.47C7.49999 17.92 7.58999 18.71 8.15999 19.02ZM13 4.07002V3.41002C13 2.52002 11.92 2.07002 11.29 2.70002L9.16999 4.83002C8.76999 5.23002 8.76999 5.87002 9.16999 6.26002L11.3 8.34002C11.93 8.96002 13 8.51002 13 7.62002V6.09002C15.84 6.57002 18 9.03002 18 12C18 14.73 16.18 17.02 13.68 17.75C13.27 17.87 13 18.26 13 18.69V18.71C13 19.36 13.61 19.85 14.23 19.67C17.57 18.71 20 15.64 20 12C20 7.92002 16.95 4.56002 13 4.07002Z" fill="black"/>
</svg>
