<svg width="24" height="24" viewBox="0 0 24 24" fill="none" xmlns="http://www.w3.org/2000/svg">
<path d="M10 3H14C14.55 3 15 2.55 15 2C15 1.45 14.55 1 14 1H10C9.45 1 9 1.45 9 2C9 2.55 9.45 3 10 3ZM12 8C11.49 8 11.08 8.39 11.02 8.89L13 10.86V9C13 8.45 12.55 8 12 8ZM12 6C15.87 6 19 9.13 19 13C19 14.12 18.73 15.18 18.26 16.12L19.73 17.59C20.53 16.25 21 14.68 21 13C21 10.88 20.26 8.93 19.03 7.39L19.78 6.64C20.16 6.26 20.17 5.63 19.78 5.24L19.77 5.23C19.38 4.84 18.76 4.85 18.37 5.23L17.62 5.98C16.07 4.74 14.12 4 12 4C10.34 4 8.78 4.48 7.43 5.29L8.88 6.74C9.82 6.27 10.88 6 12 6ZM20.19 20.88L3.87 4.56C3.48 4.17 2.85 4.17 2.46 4.56C2.07 4.95 2.07 5.58 2.46 5.97L4.53 8.04C3.61 9.42 3.05 11.03 3 12.76C2.87 17.84 6.94 22 12 22C13.84 22 15.55 21.45 16.98 20.5L18.77 22.29C19.16 22.68 19.79 22.68 20.18 22.29C20.58 21.9 20.58 21.27 20.19 20.88V20.88ZM12 20C8.13 20 5 16.87 5 13C5 11.71 5.35 10.51 5.96 9.48L15.53 19.05C14.49 19.65 13.29 20 12 20V20Z" fill="black"/>
</svg>
