<svg width="24" height="24" viewBox="0 0 24 24" fill="none" xmlns="http://www.w3.org/2000/svg">
<path d="M17.65 6.35C16.02 4.72 13.71 3.78 11.17 4.04C7.50001 4.41 4.48001 7.39 4.07001 11.06C3.52001 15.91 7.27001 20 12 20C15.19 20 17.93 18.13 19.21 15.44C19.53 14.77 19.05 14 18.31 14C17.94 14 17.59 14.2 17.43 14.53C16.3 16.96 13.59 18.5 10.63 17.84C8.41001 17.35 6.62001 15.54 6.15001 13.32C5.31001 9.44 8.26001 6 12 6C13.66 6 15.14 6.69 16.22 7.78L14.71 9.29C14.08 9.92 14.52 11 15.41 11H19C19.55 11 20 10.55 20 10V6.41C20 5.52 18.92 5.07 18.29 5.7L17.65 6.35V6.35Z" fill="black"/>
</svg>
