<svg width="120" height="120" viewBox="0 0 120 120" fill="none" xmlns="http://www.w3.org/2000/svg">
<g clip-path="url(#clip0_2386_86447)">
<path d="M66.591 66.0083L34.1671 33.5282C30.754 30.0449 25.0832 29.9476 21.5582 33.3529C20.3295 34.4906 19.4871 35.9742 19.0907 37.5388L7.17864 82.2189C6.54584 87.0417 10.0188 91.4791 14.91 92.0763C15.8817 92.1717 16.8829 92.133 17.842 91.9375L62.4101 79.9955C64.661 79.263 66.4947 77.7045 67.5954 75.602C68.6945 73.4934 68.8966 71.0818 68.1686 68.8517C67.8482 67.8995 67.3853 67.0243 66.591 66.0083Z" fill="url(#paint0_linear_2386_86447)"/>
<g filter="url(#filter0_f_2386_86447)">
<path d="M53.9746 68.819L35.3852 50.1973C33.4284 48.2003 30.1772 48.1444 28.1562 50.0968C27.4517 50.7491 26.9688 51.5997 26.7415 52.4967L19.912 78.1129C19.5492 80.878 21.5404 83.422 24.3446 83.7645C24.9017 83.8191 25.4757 83.797 26.0256 83.6848L51.5776 76.8382C52.8681 76.4182 53.9195 75.5247 54.5505 74.3193C55.1806 73.1104 55.2965 71.7278 54.8791 70.4492C54.6954 69.9033 54.43 69.4015 53.9746 68.819Z" fill="#E31352"/>
</g>
<path d="M105.355 81.5217C105.348 81.5031 105.339 81.485 105.328 81.4676L75.6499 29.9599C75.6496 29.9593 75.6493 29.9587 75.6489 29.9581C72.4121 24.2198 65.0507 22.11 59.2584 25.3189C57.2526 26.3775 55.6349 28.0204 54.5705 29.9222C54.57 29.9231 54.5694 29.924 54.5689 29.9249L24.687 81.8319C24.6762 81.8507 24.6666 81.8702 24.6583 81.8902C22.1414 87.9741 25.1295 94.9821 31.3023 97.4714L31.3022 97.4715L31.3133 97.4757C32.5398 97.9367 33.8544 98.2358 35.1742 98.316C35.1763 98.3161 35.1784 98.3162 35.1805 98.3163C35.1885 98.3167 35.1965 98.3169 35.2045 98.3169H94.9744C94.9832 98.3169 94.992 98.3167 95.0008 98.3162C98.1945 98.1474 101.134 96.7536 103.303 94.3967L103.304 94.396C105.476 92.0281 106.586 88.9473 106.415 85.777L106.415 85.7725C106.329 84.412 106.029 83.1064 105.355 81.5217Z" fill="#FF749F" fill-opacity="0.9" stroke="#F499BE" stroke-linecap="round" stroke-linejoin="round"/>
<g filter="url(#filter1_d_2386_86447)">
<mask id="path-4-inside-1_2386_86447" fill="white">
<path fill-rule="evenodd" clip-rule="evenodd" d="M65.0908 67.7185C67.0504 67.7185 68.6427 66.0959 68.6427 64.1538V52.7072C68.6427 50.761 67.0504 49.187 65.0908 49.187C63.1311 49.187 61.498 50.761 61.498 52.7072V64.1538C61.498 66.0959 63.1311 67.7185 65.0908 67.7185ZM61.498 77.9939C61.498 79.932 63.1311 81.5545 65.0908 81.5545C67.0504 81.5545 68.6427 79.932 68.6427 77.9494C68.6427 76.0112 67.0504 74.4292 65.0908 74.4292C63.1311 74.4292 61.498 76.0477 61.498 77.9939Z"/>
</mask>
<path fill-rule="evenodd" clip-rule="evenodd" d="M65.0908 67.7185C67.0504 67.7185 68.6427 66.0959 68.6427 64.1538V52.7072C68.6427 50.761 67.0504 49.187 65.0908 49.187C63.1311 49.187 61.498 50.761 61.498 52.7072V64.1538C61.498 66.0959 63.1311 67.7185 65.0908 67.7185ZM61.498 77.9939C61.498 79.932 63.1311 81.5545 65.0908 81.5545C67.0504 81.5545 68.6427 79.932 68.6427 77.9494C68.6427 76.0112 67.0504 74.4292 65.0908 74.4292C63.1311 74.4292 61.498 76.0477 61.498 77.9939Z" fill="url(#paint1_linear_2386_86447)"/>
<path d="M68.2427 64.1538C68.2427 65.8782 66.8264 67.3185 65.0908 67.3185V68.1185C67.2745 68.1185 69.0427 66.3137 69.0427 64.1538H68.2427ZM68.2427 52.7072V64.1538H69.0427V52.7072H68.2427ZM65.0908 49.587C66.8332 49.587 68.2427 50.9856 68.2427 52.7072H69.0427C69.0427 50.5364 67.2677 48.787 65.0908 48.787V49.587ZM61.898 52.7072C61.898 50.9914 63.3423 49.587 65.0908 49.587V48.787C62.9199 48.787 61.098 50.5305 61.098 52.7072H61.898ZM61.898 64.1538V52.7072H61.098V64.1538H61.898ZM65.0908 67.3185C63.3492 67.3185 61.898 65.8722 61.898 64.1538H61.098C61.098 66.3197 62.913 68.1185 65.0908 68.1185V67.3185ZM65.0908 81.1545C63.3489 81.1545 61.898 79.708 61.898 77.9939H61.098C61.098 80.156 62.9133 81.9545 65.0908 81.9545V81.1545ZM68.2427 77.9494C68.2427 79.7172 66.8235 81.1545 65.0908 81.1545V81.9545C67.2774 81.9545 69.0427 80.1468 69.0427 77.9494H68.2427ZM65.0908 74.8292C66.8326 74.8292 68.2427 76.2352 68.2427 77.9494H69.0427C69.0427 75.7873 67.2683 74.0292 65.0908 74.0292V74.8292ZM61.898 77.9939C61.898 76.2717 63.3489 74.8292 65.0908 74.8292V74.0292C62.9133 74.0292 61.098 75.8237 61.098 77.9939H61.898Z" fill="#F499BE" mask="url(#path-4-inside-1_2386_86447)"/>
</g>
</g>
<defs>
<filter id="filter0_f_2386_86447" x="0.869141" y="29.6655" width="73.2559" height="73.1274" filterUnits="userSpaceOnUse" color-interpolation-filters="sRGB">
<feFlood flood-opacity="0" result="BackgroundImageFix"/>
<feBlend mode="normal" in="SourceGraphic" in2="BackgroundImageFix" result="shape"/>
<feGaussianBlur stdDeviation="9.5" result="effect1_foregroundBlur_2386_86447"/>
</filter>
<filter id="filter1_d_2386_86447" x="56.498" y="44.187" width="27.1445" height="52.3677" filterUnits="userSpaceOnUse" color-interpolation-filters="sRGB">
<feFlood flood-opacity="0" result="BackgroundImageFix"/>
<feColorMatrix in="SourceAlpha" type="matrix" values="0 0 0 0 0 0 0 0 0 0 0 0 0 0 0 0 0 0 127 0" result="hardAlpha"/>
<feOffset dx="5" dy="5"/>
<feGaussianBlur stdDeviation="5"/>
<feColorMatrix type="matrix" values="0 0 0 0 1 0 0 0 0 0.376471 0 0 0 0 0.580392 0 0 0 1 0"/>
<feBlend mode="normal" in2="BackgroundImageFix" result="effect1_dropShadow_2386_86447"/>
<feBlend mode="normal" in="SourceGraphic" in2="effect1_dropShadow_2386_86447" result="shape"/>
</filter>
<linearGradient id="paint0_linear_2386_86447" x1="38.257" y1="61.0303" x2="-5.54122" y2="102.419" gradientUnits="userSpaceOnUse">
<stop stop-color="#FF759F"/>
<stop offset="1" stop-color="#FF196E"/>
</linearGradient>
<linearGradient id="paint1_linear_2386_86447" x1="65.0712" y1="51.0128" x2="58.5112" y2="50.4053" gradientUnits="userSpaceOnUse">
<stop stop-color="white" stop-opacity="0.75"/>
<stop offset="1" stop-color="white" stop-opacity="0.2"/>
</linearGradient>
<clipPath id="clip0_2386_86447">
<rect width="120" height="120" fill="white"/>
</clipPath>
</defs>
</svg>
