<svg width="182" height="40" viewBox="0 0 182 40" fill="none" xmlns="http://www.w3.org/2000/svg">
<g clip-path="url(#clip0_36_1651)">
<rect width="40" height="40" rx="8.02238" transform="matrix(-1 0 0 1 40.1118 0)" fill="#0B4199"/>
<circle r="46.7683" transform="matrix(-1 0 0 1 20.0559 65.7394)" fill="#0C367A"/>
<g filter="url(#filter0_d_36_1651)">
<path d="M20.114 31.6641C23.9361 29.8431 29.4126 26.2268 29.4126 19.0712C29.4126 11.9156 29.0667 8.66406 29.0667 8.66406H11.1614C11.1614 8.66406 10.8126 11.9184 10.8126 19.0712C10.8126 26.224 16.2891 29.8431 20.114 31.6641Z" fill="#C3112B"/>
<path d="M19.2954 17.196C18.2578 17.2131 16.2372 17.253 14.4386 16.6574C14.4386 16.6574 14.4847 17.2929 14.4847 18.0367C14.4847 18.7804 14.4386 19.4131 14.4386 19.4131C16.0873 18.8602 18.1281 18.8602 19.2954 18.8602V22.8213H20.9297V18.8602C22.1 18.8602 24.1378 18.8602 25.7894 19.4017C25.7894 19.4017 25.7404 18.7662 25.7404 18.0253C25.7404 17.2843 25.7894 16.646 25.7894 16.646C23.9879 17.2416 21.9674 17.2017 20.9297 17.1846V14.7139C22.2333 14.679 23.5335 14.8631 24.7748 15.2582C24.7748 15.2582 24.7258 14.6227 24.7258 13.8818C24.7258 13.1409 24.7748 12.5025 24.7748 12.5025C23.5355 12.8978 22.2372 13.0818 20.9355 13.0468C21.0084 11.8516 21.179 10.6641 21.4457 9.49609C21.4457 9.49609 20.4945 9.57019 20.114 9.57019C19.7335 9.57019 18.7795 9.49609 18.7795 9.49609C19.0461 10.6641 19.2168 11.8516 19.2897 13.0468C17.9879 13.0817 16.6897 12.8976 15.4503 12.5025C15.4503 12.5025 15.4993 13.1409 15.4993 13.8818C15.4993 14.6227 15.4503 15.2582 15.4503 15.2582C16.6917 14.8631 17.9918 14.679 19.2954 14.7139V17.196Z" fill="white"/>
<path fill-rule="evenodd" clip-rule="evenodd" d="M27.5645 25.5863C25.6287 28.6314 22.5385 30.5089 20.114 31.664C17.6863 30.5083 14.5933 28.6281 12.6575 25.5798C13.1558 24.7158 13.939 23.7846 15.0006 23.7846C15.4418 23.7735 15.8774 23.8849 16.2579 24.106C16.6385 24.3271 16.9488 24.6491 17.1537 25.0356C17.1537 25.0356 18.1885 22.3939 20.1139 22.3939C22.0394 22.3939 23.0713 25.0356 23.0713 25.0356C23.276 24.6502 23.5855 24.3289 23.9649 24.1079C24.3442 23.8869 24.7784 23.7749 25.2186 23.7846C26.2813 23.7846 27.066 24.7205 27.5645 25.5863Z" fill="#1E4E9D"/>
</g>
</g>
<path d="M51.5749 27.0562V14.6682H54.6339L56.6289 20.1782C56.7556 20.5455 56.8759 20.9255 56.9899 21.3182C57.1039 21.6982 57.2243 22.0782 57.3509 22.4582H57.4269C57.5536 22.0782 57.6676 21.6982 57.7689 21.3182C57.8829 20.9255 58.0033 20.5455 58.1299 20.1782L60.0869 14.6682H63.1269V27.0562H60.5809V22.5152C60.5809 22.2112 60.5936 21.8755 60.6189 21.5082C60.6443 21.1408 60.6759 20.7735 60.7139 20.4062C60.7519 20.0262 60.7899 19.6588 60.8279 19.3042C60.8659 18.9368 60.9039 18.6012 60.9419 18.2972H60.8659L59.8589 21.2422L58.0919 25.9732H56.5529L54.7859 21.2422L53.7979 18.2972H53.7219C53.7599 18.6012 53.7979 18.9368 53.8359 19.3042C53.8739 19.6588 53.9119 20.0262 53.9499 20.4062C53.9879 20.7735 54.0196 21.1408 54.0449 21.5082C54.0703 21.8755 54.0829 22.2112 54.0829 22.5152V27.0562H51.5749ZM70.0166 27.2842C69.4213 27.2842 68.8449 27.1765 68.2876 26.9612C67.7303 26.7332 67.2363 26.4102 66.8056 25.9922C66.3876 25.5742 66.0519 25.0612 65.7986 24.4532C65.5453 23.8325 65.4186 23.1295 65.4186 22.3442C65.4186 21.5588 65.5453 20.8622 65.7986 20.2542C66.0519 19.6335 66.3876 19.1142 66.8056 18.6962C67.2363 18.2782 67.7303 17.9615 68.2876 17.7462C68.8449 17.5182 69.4213 17.4042 70.0166 17.4042C70.6119 17.4042 71.1819 17.5182 71.7266 17.7462C72.2839 17.9615 72.7716 18.2782 73.1896 18.6962C73.6203 19.1142 73.9623 19.6335 74.2156 20.2542C74.4689 20.8622 74.5956 21.5588 74.5956 22.3442C74.5956 23.1295 74.4689 23.8325 74.2156 24.4532C73.9623 25.0612 73.6203 25.5742 73.1896 25.9922C72.7716 26.4102 72.2839 26.7332 71.7266 26.9612C71.1819 27.1765 70.6119 27.2842 70.0166 27.2842ZM70.0166 25.0232C70.5866 25.0232 71.0173 24.7825 71.3086 24.3012C71.5999 23.8198 71.7456 23.1675 71.7456 22.3442C71.7456 21.5208 71.5999 20.8685 71.3086 20.3872C71.0173 19.9058 70.5866 19.6652 70.0166 19.6652C69.4339 19.6652 68.9969 19.9058 68.7056 20.3872C68.4269 20.8685 68.2876 21.5208 68.2876 22.3442C68.2876 23.1675 68.4269 23.8198 68.7056 24.3012C68.9969 24.7825 69.4339 25.0232 70.0166 25.0232ZM76.1077 30.7802C75.715 30.7802 75.392 30.7548 75.1387 30.7042C74.8727 30.6535 74.6447 30.5902 74.4547 30.5142L74.9487 28.4622C75.0753 28.5002 75.1957 28.5318 75.3097 28.5572C75.4237 28.5825 75.5503 28.5952 75.6897 28.5952C76.057 28.5952 76.3103 28.4748 76.4497 28.2342C76.6017 27.9935 76.6777 27.6072 76.6777 27.0752V17.6322H79.4707V26.9992C79.4707 27.5185 79.4137 28.0062 79.2997 28.4622C79.1983 28.9182 79.0147 29.3172 78.7487 29.6592C78.4953 30.0012 78.1533 30.2735 77.7227 30.4762C77.292 30.6788 76.7537 30.7802 76.1077 30.7802ZM78.0837 16.2452C77.615 16.2452 77.2287 16.1122 76.9247 15.8462C76.6207 15.5675 76.4687 15.2128 76.4687 14.7822C76.4687 14.3515 76.6207 14.0032 76.9247 13.7372C77.2287 13.4712 77.615 13.3382 78.0837 13.3382C78.5523 13.3382 78.9387 13.4712 79.2427 13.7372C79.5467 14.0032 79.6987 14.3515 79.6987 14.7822C79.6987 15.2128 79.5467 15.5675 79.2427 15.8462C78.9387 16.1122 78.5523 16.2452 78.0837 16.2452ZM86.3147 27.2842C85.6434 27.2842 85.0164 27.1765 84.4337 26.9612C83.8511 26.7332 83.3444 26.4102 82.9137 25.9922C82.4831 25.5615 82.1474 25.0422 81.9067 24.4342C81.6661 23.8262 81.5457 23.1295 81.5457 22.3442C81.5457 21.5842 81.6724 20.9002 81.9257 20.2922C82.1791 19.6715 82.5084 19.1522 82.9137 18.7342C83.3317 18.3035 83.8067 17.9742 84.3387 17.7462C84.8707 17.5182 85.4217 17.4042 85.9917 17.4042C86.6631 17.4042 87.2457 17.5182 87.7397 17.7462C88.2464 17.9742 88.6644 18.2908 88.9937 18.6962C89.3357 19.1015 89.5891 19.5828 89.7537 20.1402C89.9184 20.6848 90.0007 21.2802 90.0007 21.9262C90.0007 22.1795 89.9881 22.4202 89.9627 22.6482C89.9374 22.8762 89.9121 23.0472 89.8867 23.1612H84.2437C84.3704 23.8452 84.6491 24.3518 85.0797 24.6812C85.5231 24.9978 86.0614 25.1562 86.6947 25.1562C87.3661 25.1562 88.0437 24.9472 88.7277 24.5292L89.6587 26.2202C89.1774 26.5495 88.6391 26.8092 88.0437 26.9992C87.4611 27.1892 86.8847 27.2842 86.3147 27.2842ZM84.2247 21.3182H87.6257C87.6257 20.7862 87.5054 20.3555 87.2647 20.0262C87.0241 19.6968 86.6187 19.5322 86.0487 19.5322C85.6054 19.5322 85.2127 19.6778 84.8707 19.9692C84.5414 20.2605 84.3261 20.7102 84.2247 21.3182ZM100.043 27.2842C99.2328 27.2842 98.4221 27.1385 97.6114 26.8472C96.8134 26.5432 96.0978 26.0935 95.4644 25.4982L97.0604 23.5792C97.5038 23.9592 97.9914 24.2695 98.5234 24.5102C99.0681 24.7508 99.6001 24.8712 100.119 24.8712C100.702 24.8712 101.133 24.7635 101.411 24.5482C101.703 24.3328 101.848 24.0415 101.848 23.6742C101.848 23.4842 101.804 23.3195 101.715 23.1802C101.639 23.0408 101.519 22.9205 101.354 22.8192C101.202 22.7052 101.012 22.6038 100.784 22.5152C100.569 22.4138 100.328 22.3062 100.062 22.1922L98.4474 21.5082C98.1308 21.3815 97.8204 21.2168 97.5164 21.0142C97.2251 20.8115 96.9591 20.5772 96.7184 20.3112C96.4904 20.0325 96.3068 19.7158 96.1674 19.3612C96.0281 18.9938 95.9584 18.5822 95.9584 18.1262C95.9584 17.6195 96.0661 17.1445 96.2814 16.7012C96.4968 16.2452 96.8008 15.8525 97.1934 15.5232C97.5861 15.1812 98.0484 14.9152 98.5804 14.7252C99.1251 14.5352 99.7204 14.4402 100.366 14.4402C101.088 14.4402 101.798 14.5795 102.494 14.8582C103.204 15.1368 103.824 15.5422 104.356 16.0742L102.931 17.8412C102.526 17.5245 102.121 17.2838 101.715 17.1192C101.31 16.9418 100.86 16.8532 100.366 16.8532C99.8851 16.8532 99.4988 16.9545 99.2074 17.1572C98.9288 17.3472 98.7894 17.6195 98.7894 17.9742C98.7894 18.1642 98.8338 18.3288 98.9224 18.4682C99.0238 18.5948 99.1568 18.7152 99.3214 18.8292C99.4988 18.9305 99.7014 19.0318 99.9294 19.1332C100.157 19.2218 100.404 19.3232 100.67 19.4372L102.266 20.0832C103.026 20.3872 103.622 20.8052 104.052 21.3372C104.496 21.8692 104.717 22.5722 104.717 23.4462C104.717 23.9655 104.61 24.4595 104.394 24.9282C104.192 25.3842 103.888 25.7895 103.482 26.1442C103.09 26.4862 102.602 26.7648 102.019 26.9802C101.437 27.1828 100.778 27.2842 100.043 27.2842ZM109.307 27.2842C108.826 27.2842 108.42 27.2082 108.091 27.0562C107.762 26.9042 107.496 26.6952 107.293 26.4292C107.103 26.1505 106.964 25.8212 106.875 25.4412C106.786 25.0485 106.742 24.6115 106.742 24.1302V13.7372H109.535V24.2442C109.535 24.5355 109.586 24.7382 109.687 24.8522C109.801 24.9662 109.915 25.0232 110.029 25.0232C110.092 25.0232 110.143 25.0232 110.181 25.0232C110.232 25.0232 110.295 25.0105 110.371 24.9852L110.713 27.0562C110.561 27.1195 110.365 27.1702 110.124 27.2082C109.896 27.2588 109.624 27.2842 109.307 27.2842ZM116.376 27.2842C115.78 27.2842 115.204 27.1765 114.647 26.9612C114.089 26.7332 113.595 26.4102 113.165 25.9922C112.747 25.5742 112.411 25.0612 112.158 24.4532C111.904 23.8325 111.778 23.1295 111.778 22.3442C111.778 21.5588 111.904 20.8622 112.158 20.2542C112.411 19.6335 112.747 19.1142 113.165 18.6962C113.595 18.2782 114.089 17.9615 114.647 17.7462C115.204 17.5182 115.78 17.4042 116.376 17.4042C116.971 17.4042 117.541 17.5182 118.086 17.7462C118.643 17.9615 119.131 18.2782 119.549 18.6962C119.979 19.1142 120.321 19.6335 120.575 20.2542C120.828 20.8622 120.955 21.5588 120.955 22.3442C120.955 23.1295 120.828 23.8325 120.575 24.4532C120.321 25.0612 119.979 25.5742 119.549 25.9922C119.131 26.4102 118.643 26.7332 118.086 26.9612C117.541 27.1765 116.971 27.2842 116.376 27.2842ZM116.376 25.0232C116.946 25.0232 117.376 24.7825 117.668 24.3012C117.959 23.8198 118.105 23.1675 118.105 22.3442C118.105 21.5208 117.959 20.8685 117.668 20.3872C117.376 19.9058 116.946 19.6652 116.376 19.6652C115.793 19.6652 115.356 19.9058 115.065 20.3872C114.786 20.8685 114.647 21.5208 114.647 22.3442C114.647 23.1675 114.786 23.8198 115.065 24.3012C115.356 24.7825 115.793 25.0232 116.376 25.0232ZM125.035 27.0562L121.862 17.6322H124.674L125.89 22.0782C126.017 22.5468 126.137 23.0282 126.251 23.5222C126.378 24.0035 126.505 24.4912 126.631 24.9852H126.707C126.821 24.4912 126.935 24.0035 127.049 23.5222C127.176 23.0282 127.303 22.5468 127.429 22.0782L128.664 17.6322H131.343L128.265 27.0562H125.035ZM137.034 27.2842C136.363 27.2842 135.736 27.1765 135.153 26.9612C134.57 26.7332 134.064 26.4102 133.633 25.9922C133.202 25.5615 132.867 25.0422 132.626 24.4342C132.385 23.8262 132.265 23.1295 132.265 22.3442C132.265 21.5842 132.392 20.9002 132.645 20.2922C132.898 19.6715 133.228 19.1522 133.633 18.7342C134.051 18.3035 134.526 17.9742 135.058 17.7462C135.59 17.5182 136.141 17.4042 136.711 17.4042C137.382 17.4042 137.965 17.5182 138.459 17.7462C138.966 17.9742 139.384 18.2908 139.713 18.6962C140.055 19.1015 140.308 19.5828 140.473 20.1402C140.638 20.6848 140.72 21.2802 140.72 21.9262C140.72 22.1795 140.707 22.4202 140.682 22.6482C140.657 22.8762 140.631 23.0472 140.606 23.1612H134.963C135.09 23.8452 135.368 24.3518 135.799 24.6812C136.242 24.9978 136.781 25.1562 137.414 25.1562C138.085 25.1562 138.763 24.9472 139.447 24.5292L140.378 26.2202C139.897 26.5495 139.358 26.8092 138.763 26.9992C138.18 27.1892 137.604 27.2842 137.034 27.2842ZM134.944 21.3182H138.345C138.345 20.7862 138.225 20.3555 137.984 20.0262C137.743 19.6968 137.338 19.5322 136.768 19.5322C136.325 19.5322 135.932 19.6778 135.59 19.9692C135.261 20.2605 135.045 20.7102 134.944 21.3182ZM142.8 27.0562V17.6322H145.08L145.27 18.8292H145.346C145.751 18.4492 146.195 18.1198 146.676 17.8412C147.157 17.5498 147.721 17.4042 148.367 17.4042C149.393 17.4042 150.134 17.7398 150.59 18.4112C151.059 19.0825 151.293 20.0135 151.293 21.2042V27.0562H148.5V21.5652C148.5 20.8812 148.405 20.4125 148.215 20.1592C148.038 19.9058 147.746 19.7792 147.341 19.7792C146.986 19.7792 146.682 19.8615 146.429 20.0262C146.176 20.1782 145.897 20.3998 145.593 20.6912V27.0562H142.8ZM156.597 27.2842C155.976 27.2842 155.337 27.1638 154.678 26.9232C154.032 26.6825 153.468 26.3658 152.987 25.9732L154.241 24.2252C154.672 24.5545 155.083 24.8015 155.476 24.9662C155.869 25.1308 156.268 25.2132 156.673 25.2132C157.091 25.2132 157.395 25.1435 157.585 25.0042C157.775 24.8648 157.87 24.6685 157.87 24.4152C157.87 24.2632 157.813 24.1302 157.699 24.0162C157.598 23.8895 157.452 23.7755 157.262 23.6742C157.085 23.5728 156.882 23.4842 156.654 23.4082C156.426 23.3195 156.192 23.2245 155.951 23.1232C155.66 23.0092 155.368 22.8762 155.077 22.7242C154.786 22.5722 154.52 22.3885 154.279 22.1732C154.038 21.9452 153.842 21.6855 153.69 21.3942C153.538 21.0902 153.462 20.7418 153.462 20.3492C153.462 19.9185 153.544 19.5195 153.709 19.1522C153.886 18.7848 154.133 18.4745 154.45 18.2212C154.767 17.9678 155.147 17.7715 155.59 17.6322C156.033 17.4802 156.527 17.4042 157.072 17.4042C157.794 17.4042 158.427 17.5308 158.972 17.7842C159.517 18.0248 159.992 18.2972 160.397 18.6012L159.143 20.2732C158.801 20.0198 158.465 19.8235 158.136 19.6842C157.807 19.5448 157.477 19.4752 157.148 19.4752C156.439 19.4752 156.084 19.7222 156.084 20.2162C156.084 20.3682 156.135 20.5012 156.236 20.6152C156.337 20.7165 156.47 20.8115 156.635 20.9002C156.812 20.9888 157.009 21.0775 157.224 21.1662C157.452 21.2422 157.686 21.3245 157.927 21.4132C158.231 21.5272 158.529 21.6602 158.82 21.8122C159.124 21.9515 159.396 22.1288 159.637 22.3442C159.89 22.5595 160.093 22.8255 160.245 23.1422C160.397 23.4462 160.473 23.8135 160.473 24.2442C160.473 24.6748 160.391 25.0738 160.226 25.4412C160.061 25.8085 159.814 26.1315 159.485 26.4102C159.156 26.6762 158.75 26.8915 158.269 27.0562C157.788 27.2082 157.23 27.2842 156.597 27.2842ZM162.397 27.0562V13.7372H165.114V21.3752H165.19L168.173 17.6322H171.213L167.907 21.5082L171.46 27.0562H168.439L166.311 23.3892L165.114 24.7382V27.0562H162.397ZM176.465 27.2842C175.87 27.2842 175.293 27.1765 174.736 26.9612C174.179 26.7332 173.685 26.4102 173.254 25.9922C172.836 25.5742 172.5 25.0612 172.247 24.4532C171.994 23.8325 171.867 23.1295 171.867 22.3442C171.867 21.5588 171.994 20.8622 172.247 20.2542C172.5 19.6335 172.836 19.1142 173.254 18.6962C173.685 18.2782 174.179 17.9615 174.736 17.7462C175.293 17.5182 175.87 17.4042 176.465 17.4042C177.06 17.4042 177.63 17.5182 178.175 17.7462C178.732 17.9615 179.22 18.2782 179.638 18.6962C180.069 19.1142 180.411 19.6335 180.664 20.2542C180.917 20.8622 181.044 21.5588 181.044 22.3442C181.044 23.1295 180.917 23.8325 180.664 24.4532C180.411 25.0612 180.069 25.5742 179.638 25.9922C179.22 26.4102 178.732 26.7332 178.175 26.9612C177.63 27.1765 177.06 27.2842 176.465 27.2842ZM176.465 25.0232C177.035 25.0232 177.466 24.7825 177.757 24.3012C178.048 23.8198 178.194 23.1675 178.194 22.3442C178.194 21.5208 178.048 20.8685 177.757 20.3872C177.466 19.9058 177.035 19.6652 176.465 19.6652C175.882 19.6652 175.445 19.9058 175.154 20.3872C174.875 20.8685 174.736 21.5208 174.736 22.3442C174.736 23.1675 174.875 23.8198 175.154 24.3012C175.445 24.7825 175.882 25.0232 176.465 25.0232Z" fill="#0B4199"/>
<defs>
<filter id="filter0_d_36_1651" x="-6.23495" y="-6.97959" width="52.6951" height="57.0951" filterUnits="userSpaceOnUse" color-interpolation-filters="sRGB">
<feFlood flood-opacity="0" result="BackgroundImageFix"/>
<feColorMatrix in="SourceAlpha" type="matrix" values="0 0 0 0 0 0 0 0 0 0 0 0 0 0 0 0 0 0 127 0" result="hardAlpha"/>
<feOffset dy="1.40392"/>
<feGaussianBlur stdDeviation="8.52378"/>
<feComposite in2="hardAlpha" operator="out"/>
<feColorMatrix type="matrix" values="0 0 0 0 0 0 0 0 0 0 0 0 0 0 0 0 0 0 0.55 0"/>
<feBlend mode="normal" in2="BackgroundImageFix" result="effect1_dropShadow_36_1651"/>
<feBlend mode="normal" in="SourceGraphic" in2="effect1_dropShadow_36_1651" result="shape"/>
</filter>
<clipPath id="clip0_36_1651">
<rect width="40" height="40" rx="8.02238" transform="matrix(-1 0 0 1 40.1118 0)" fill="white"/>
</clipPath>
</defs>
</svg>
